  0
SECTION
  2
HEADER
  9
$ACADVER
  1
AC1014
  9
$HANDSEED
  5
FFFF
  9
$MEASUREMENT
 70
     1
  0
ENDSEC
  0
SECTION
  2
TABLES
  0
TABLE
  2
VPORT
  5
8
330
0
100
AcDbSymbolTable
 70
     4
  0
VPORT
  5
2E
330
8
100
AcDbSymbolTableRecord
100
AcDbViewportTableRecord
  2
*ACTIVE
 70
     0
 10
0.0
 20
0.0
 11
1.0
 21
1.0
 12
210.0
 22
148.5
 13
0.0
 23
0.0
 14
10.0
 24
10.0
 15
10.0
 25
10.0
 16
0.0
 26
0.0
 36
1.0
 17
0.0
 27
0.0
 37
0.0
 40
341.0
 41
1.24
 42
50.0
 43
0.0
 44
0.0
 50
0.0
 51
0.0
 71
     0
 72
   100
 73
     1
 74
     3
 75
     0
 76
     0
 77
     0
 78
     0
  0
ENDTAB
  0
TABLE
  2
LTYPE
  5
5
330
0
100
AcDbSymbolTable
 70
     1
  0
LTYPE
  5
14
330
5
100
AcDbSymbolTableRecord
100
AcDbLinetypeTableRecord
  2
BYBLOCK
 70
     0
  3

 72
    65
 73
     0
 40
0.0
  0
LTYPE
  5
15
330
5
100
AcDbSymbolTableRecord
100
AcDbLinetypeTableRecord
  2
BYLAYER
 70
     0
  3

 72
    65
 73
     0
 40
0.0
  0
LTYPE
  5
16
330
5
100
AcDbSymbolTableRecord
100
AcDbLinetypeTableRecord
  2
CONTINUOUS
 70
     0
  3
Solid line
 72
    65
 73
     0
 40
0.0
  0
ENDTAB
  0
TABLE
  2
LAYER
  5
2
100
AcDbSymbolTable
 70
2
  0
LAYER
  5
50
100
AcDbSymbolTableRecord
100
AcDbLayerTableRecord
  2
0
 70
0
  6
CONTINUOUS
  0
LAYER
  5
51
100
AcDbSymbolTableRecord
100
AcDbLayerTableRecord
  2
Layer_1
 70
0
  6
CONTINUOUS
  0
ENDTAB
  0
TABLE
  2
STYLE
  5
3
330
0
100
AcDbSymbolTable
 70
     1
  0
STYLE
  5
11
330
3
100
AcDbSymbolTableRecord
100
AcDbTextStyleTableRecord
  2
STANDARD
 70
     0
 40
0.0
 41
1.0
 50
0.0
 71
     0
 42
2.5
  3
txt
  4

  0
ENDTAB
  0
TABLE
  2
VIEW
  5
6
330
0
100
AcDbSymbolTable
 70
     0
  0
ENDTAB
  0
TABLE
  2
UCS
  5
7
330
0
100
AcDbSymbolTable
 70
     0
  0
ENDTAB
  0
TABLE
  2
APPID
  5
9
330
0
100
AcDbSymbolTable
 70
     2
  0
APPID
  5
12
330
9
100
AcDbSymbolTableRecord
100
AcDbRegAppTableRecord
  2
ACAD
 70
     0
  0
ENDTAB
  0
TABLE
  2
DIMSTYLE
  5
A
330
0
100
AcDbSymbolTable
 70
     1
  0
DIMSTYLE
105
27
330
A
100
AcDbSymbolTableRecord
100
AcDbDimStyleTableRecord
  2
ISO-25
 70
     0
  3

  4

  5

  6

  7

 40
1.0
 41
2.5
 42
0.625
 43
3.75
 44
1.25
 45
0.0
 46
0.0
 47
0.0
 48
0.0
140
2.5
141
2.5
142
0.0
143
0.03937007874016
144
1.0
145
0.0
146
1.0
147
0.625
 71
     0
 72
     0
 73
     0
 74
     0
 75
     0
 76
     0
 77
     1
 78
     8
170
     0
171
     3
172
     1
173
     0
174
     0
175
     0
176
     0
177
     0
178
     0
270
     2
271
     2
272
     2
273
     2
274
     3
340
11
275
     0
280
     0
281
     0
282
     0
283
     0
284
     8
285
     0
286
     0
287
     3
288
     0
  0
ENDTAB
  0
TABLE
  2
BLOCK_RECORD
  5
1
330
0
100
AcDbSymbolTable
 70
     1
  0
BLOCK_RECORD
  5
1F
330
1
100
AcDbSymbolTableRecord
100
AcDbBlockTableRecord
  2
*MODEL_SPACE
  0
BLOCK_RECORD
  5
1B
330
1
100
AcDbSymbolTableRecord
100
AcDbBlockTableRecord
  2
*PAPER_SPACE
  0
ENDTAB
  0
ENDSEC
  0
SECTION
  2
BLOCKS
  0
BLOCK
  5
20
330
1F
100
AcDbEntity
  8
0
100
AcDbBlockBegin
  2
*MODEL_SPACE
 70
     0
 10
0.0
 20
0.0
 30
0.0
  3
*MODEL_SPACE
  1

  0
ENDBLK
  5
21
330
1F
100
AcDbEntity
  8
0
100
AcDbBlockEnd
  0
BLOCK
  5
1C
330
1B
100
AcDbEntity
 67
     1
  8
0
100
AcDbBlockBegin
  2
*PAPER_SPACE
  1

  0
ENDBLK
  5
1D
330
1B
100
AcDbEntity
 67
     1
  8
0
100
AcDbBlockEnd
  0
ENDSEC
  0
SECTION
  2
ENTITIES
  0
LWPOLYLINE
  5
100
100
AcDbEntity
  8
Layer_1
 62
3
100
AcDbPolyline
 90
216
 70
1
 10
66.467535
 20
13.243250
 30
0.0
 10
62.987982
 20
15.054530
 30
0.0
 10
60.121884
 20
16.660100
 30
0.0
 10
57.783352
 20
18.130330
 30
0.0
 10
55.886501
 20
19.535540
 30
0.0
 10
54.345443
 20
20.946090
 30
0.0
 10
53.074292
 20
22.432320
 30
0.0
 10
51.987161
 20
24.064580
 30
0.0
 10
50.998162
 20
25.913210
 30
0.0
 10
50.671227
 20
26.478790
 30
0.0
 10
50.340102
 20
26.842140
 30
0.0
 10
50.001709
 20
27.001970
 30
0.0
 10
49.652968
 20
26.956970
 30
0.0
 10
49.290801
 20
26.705930
 30
0.0
 10
48.912129
 20
26.247520
 30
0.0
 10
48.513874
 20
25.580470
 30
0.0
 10
48.092955
 20
24.703490
 30
0.0
 10
47.355682
 20
23.348850
 30
0.0
 10
46.336801
 20
22.034240
 30
0.0
 10
44.993534
 20
20.729500
 30
0.0
 10
43.283106
 20
19.404470
 30
0.0
 10
41.162741
 20
18.029010
 30
0.0
 10
38.589664
 20
16.572960
 30
0.0
 10
35.521099
 20
15.006160
 30
0.0
 10
31.914270
 20
13.298460
 30
0.0
 10
27.337969
 20
11.247230
 30
0.0
 10
23.893174
 20
9.915590
 30
0.0
 10
21.463177
 20
9.392050
 30
0.0
 10
19.931268
 20
9.765170
 30
0.0
 10
19.180738
 20
11.123480
 30
0.0
 10
19.094878
 20
13.555510
 30
0.0
 10
19.556979
 20
17.149800
 30
0.0
 10
20.450333
 20
21.994880
 30
0.0
 10
21.202280
 20
25.543380
 30
0.0
 10
21.999356
 20
28.683700
 30
0.0
 10
22.845528
 20
31.425060
 30
0.0
 10
23.744759
 20
33.776720
 30
0.0
 10
24.701016
 20
35.747890
 30
0.0
 10
25.718264
 20
37.347840
 30
0.0
 10
26.800468
 20
38.585780
 30
0.0
 10
27.951593
 20
39.470960
 30
0.0
 10
28.715323
 20
39.990820
 30
0.0
 10
29.193371
 20
40.465850
 30
0.0
 10
29.383666
 20
40.899250
 30
0.0
 10
29.284136
 20
41.294200
 30
0.0
 10
28.892711
 20
41.653880
 30
0.0
 10
28.207317
 20
41.981470
 30
0.0
 10
27.225883
 20
42.280170
 30
0.0
 10
25.946338
 20
42.553140
 30
0.0
 10
25.271823
 20
42.692080
 30
0.0
 10
24.542572
 20
42.870300
 30
0.0
 10
23.781696
 20
43.080410
 30
0.0
 10
23.012305
 20
43.315050
 30
0.0
 10
22.257508
 20
43.566840
 30
0.0
 10
21.540417
 20
43.828390
 30
0.0
 10
20.884141
 20
44.092350
 30
0.0
 10
20.311790
 20
44.351320
 30
0.0
 10
18.747998
 20
45.409780
 30
0.0
 10
16.365674
 20
47.366360
 30
0.0
 10
13.477845
 20
49.924070
 30
0.0
 10
10.397536
 20
52.785900
 30
0.0
 10
7.437773
 20
55.654860
 30
0.0
 10
4.911580
 20
58.233950
 30
0.0
 10
3.131983
 20
60.226190
 30
0.0
 10
2.412007
 20
61.334560
 30
0.0
 10
2.404817
 20
61.553170
 30
0.0
 10
2.440181
 20
61.809670
 30
0.0
 10
2.514315
 20
62.094690
 30
0.0
 10
2.623436
 20
62.398860
 30
0.0
 10
2.763761
 20
62.712810
 30
0.0
 10
2.931508
 20
63.027170
 30
0.0
 10
3.122895
 20
63.332560
 30
0.0
 10
3.334138
 20
63.619610
 30
0.0
 10
3.726925
 20
63.998030
 30
0.0
 10
4.297884
 20
64.337980
 30
0.0
 10
5.101184
 20
64.652460
 30
0.0
 10
6.190996
 20
64.954470
 30
0.0
 10
7.621492
 20
65.257000
 30
0.0
 10
9.446841
 20
65.573030
 30
0.0
 10
11.721214
 20
65.915570
 30
0.0
 10
14.498783
 20
66.297610
 30
0.0
 10
18.300913
 20
66.757830
 30
0.0
 10
21.627973
 20
67.055250
 30
0.0
 10
24.532519
 20
67.187180
 30
0.0
 10
27.067104
 20
67.150980
 30
0.0
 10
29.284284
 20
66.943870
 30
0.0
 10
31.236616
 20
66.563190
 30
0.0
 10
32.976653
 20
66.006260
 30
0.0
 10
34.556951
 20
65.270380
 30
0.0
 10
35.690125
 20
64.683560
 30
0.0
 10
36.567832
 20
64.315930
 30
0.0
 10
37.213325
 20
64.185030
 30
0.0
 10
37.649859
 20
64.308390
 30
0.0
 10
37.900688
 20
64.703570
 30
0.0
 10
37.989068
 20
65.388100
 30
0.0
 10
37.938248
 20
66.379520
 30
0.0
 10
37.771485
 20
67.695380
 30
0.0
 10
37.688115
 20
68.469590
 30
0.0
 10
37.649955
 20
69.318400
 30
0.0
 10
37.654955
 20
70.214170
 30
0.0
 10
37.701165
 20
71.129270
 30
0.0
 10
37.786535
 20
72.036080
 30
0.0
 10
37.909055
 20
72.906970
 30
0.0
 10
38.066706
 20
73.714310
 30
0.0
 10
38.257471
 20
74.430480
 30
0.0
 10
39.103293
 20
76.567960
 30
0.0
 10
40.497574
 20
79.498290
 30
0.0
 10
42.254525
 20
82.891410
 30
0.0
 10
44.188355
 20
86.417320
 30
0.0
 10
46.113274
 20
89.745970
 30
0.0
 10
47.843493
 20
92.547330
 30
0.0
 10
49.193221
 20
94.491370
 30
0.0
 10
49.976668
 20
95.248060
 30
0.0
 10
50.734817
 20
95.255060
 30
0.0
 10
51.453678
 20
95.044560
 30
0.0
 10
52.180585
 20
94.559460
 30
0.0
 10
52.962874
 20
93.742310
 30
0.0
 10
53.847882
 20
92.535670
 30
0.0
 10
54.882946
 20
90.882080
 30
0.0
 10
56.115399
 20
88.724110
 30
0.0
 10
57.592580
 20
86.004300
 30
0.0
 10
59.465627
 20
82.410430
 30
0.0
 10
60.963867
 20
79.310870
 30
0.0
 10
62.110104
 20
76.629880
 30
0.0
 10
62.927141
 20
74.291730
 30
0.0
 10
63.437782
 20
72.220690
 30
0.0
 10
63.664830
 20
70.341040
 30
0.0
 10
63.631090
 20
68.577040
 30
0.0
 10
63.359365
 20
66.852970
 30
0.0
 10
63.265015
 20
66.427110
 30
0.0
 10
63.170665
 20
66.001250
 30
0.0
 10
63.076315
 20
65.575390
 30
0.0
 10
62.981965
 20
65.149520
 30
0.0
 10
62.887615
 20
64.723660
 30
0.0
 10
62.793265
 20
64.297800
 30
0.0
 10
62.698915
 20
63.871940
 30
0.0
 10
62.604565
 20
63.446080
 30
0.0
 10
62.866708
 20
63.544180
 30
0.0
 10
63.128851
 20
63.642280
 30
0.0
 10
63.390993
 20
63.740380
 30
0.0
 10
63.653136
 20
63.838380
 30
0.0
 10
63.915279
 20
63.936480
 30
0.0
 10
64.177422
 20
64.034580
 30
0.0
 10
64.439564
 20
64.132680
 30
0.0
 10
64.701707
 20
64.230780
 30
0.0
 10
67.153244
 20
65.094040
 30
0.0
 10
69.374649
 20
65.734040
 30
0.0
 10
71.503535
 20
66.157610
 30
0.0
 10
73.677512
 20
66.371600
 30
0.0
 10
76.034193
 20
66.382800
 30
0.0
 10
78.711191
 20
66.198150
 30
0.0
 10
81.846115
 20
65.824430
 30
0.0
 10
85.576580
 20
65.268500
 30
0.0
 10
90.718193
 20
64.400020
 30
0.0
 10
94.494470
 20
63.567340
 30
0.0
 10
96.961568
 20
62.655470
 30
0.0
 10
98.175644
 20
61.549410
 30
0.0
 10
98.192854
 20
60.134180
 30
0.0
 10
97.069357
 20
58.294770
 30
0.0
 10
94.861308
 20
55.916210
 30
0.0
 10
91.624865
 20
52.883500
 30
0.0
 10
88.598712
 20
50.189400
 30
0.0
 10
85.904720
 20
47.930620
 30
0.0
 10
83.489275
 20
46.073460
 30
0.0
 10
81.298765
 20
44.584260
 30
0.0
 10
79.279576
 20
43.429340
 30
0.0
 10
77.378095
 20
42.575020
 30
0.0
 10
75.540710
 20
41.987630
 30
0.0
 10
73.713808
 20
41.633490
 30
0.0
 10
73.238274
 20
41.569090
 30
0.0
 10
72.762741
 20
41.504690
 30
0.0
 10
72.287207
 20
41.440290
 30
0.0
 10
71.811674
 20
41.375890
 30
0.0
 10
71.336140
 20
41.311490
 30
0.0
 10
70.860606
 20
41.247090
 30
0.0
 10
70.385073
 20
41.182690
 30
0.0
 10
69.909539
 20
41.118290
 30
0.0
 10
70.270216
 20
40.764040
 30
0.0
 10
70.630893
 20
40.409790
 30
0.0
 10
70.991569
 20
40.055540
 30
0.0
 10
71.352246
 20
39.701290
 30
0.0
 10
71.712923
 20
39.347040
 30
0.0
 10
72.073600
 20
38.992790
 30
0.0
 10
72.434276
 20
38.638540
 30
0.0
 10
72.794953
 20
38.284290
 30
0.0
 10
74.056848
 20
36.899110
 30
0.0
 10
75.166608
 20
35.350270
 30
0.0
 10
76.143207
 20
33.586850
 30
0.0
 10
77.005619
 20
31.557910
 30
0.0
 10
77.772821
 20
29.212510
 30
0.0
 10
78.463786
 20
26.499720
 30
0.0
 10
79.097490
 20
23.368600
 30
0.0
 10
79.692908
 20
19.768220
 30
0.0
 10
80.068041
 20
16.969890
 30
0.0
 10
80.278247
 20
14.597150
 30
0.0
 10
80.320227
 20
12.628680
 30
0.0
 10
80.190692
 20
11.043120
 30
0.0
 10
79.886343
 20
9.819160
 30
0.0
 10
79.403887
 20
8.935450
 30
0.0
 10
78.740028
 20
8.370650
 30
0.0
 10
77.891470
 20
8.103430
 30
0.0
 10
77.471860
 20
8.183530
 30
0.0
 10
76.670429
 20
8.466440
 30
0.0
 10
75.534035
 20
8.931110
 30
0.0
 10
74.109532
 20
9.556470
 30
0.0
 10
72.443779
 20
10.321440
 30
0.0
 10
70.583633
 20
11.204930
 30
0.0
 10
68.575949
 20
12.185870
 30
0.0
 10
66.467585
 20
13.243170
 30
0.0
 10
66.467570
 20
13.243270
 30
0.0
 10
66.467556
 20
13.243360
 30
0.0
 10
66.467541
 20
13.243460
 30
0.0
 10
66.467526
 20
13.243560
 30
0.0
 10
66.467511
 20
13.243660
 30
0.0
 10
66.467497
 20
13.243750
 30
0.0
 10
66.467482
 20
13.243850
 30
0.0
  0
ENDSEC
  0
SECTION
  2
OBJECTS
  0
DICTIONARY
  5
C
330
0
100
AcDbDictionary
  3
ACAD_GROUP
350
D
  3
ACAD_MLINESTYLE
350
17
  0
DICTIONARY
  5
D
330
C
100
AcDbDictionary
  0
DICTIONARY
  5
1A
330
C
100
AcDbDictionary
  0
DICTIONARY
  5
17
330
C
100
AcDbDictionary
  3
STANDARD
350
18
  0
DICTIONARY
  5
19
330
C
100
AcDbDictionary
  0
ENDSEC
  0
EOF
