  0
SECTION
  2
HEADER
  9
$ACADVER
  1
AC1014
  9
$HANDSEED
  5
FFFF
  9
$MEASUREMENT
 70
     1
  0
ENDSEC
  0
SECTION
  2
TABLES
  0
TABLE
  2
VPORT
  5
8
330
0
100
AcDbSymbolTable
 70
     4
  0
VPORT
  5
2E
330
8
100
AcDbSymbolTableRecord
100
AcDbViewportTableRecord
  2
*ACTIVE
 70
     0
 10
0.0
 20
0.0
 11
1.0
 21
1.0
 12
210.0
 22
148.5
 13
0.0
 23
0.0
 14
10.0
 24
10.0
 15
10.0
 25
10.0
 16
0.0
 26
0.0
 36
1.0
 17
0.0
 27
0.0
 37
0.0
 40
341.0
 41
1.24
 42
50.0
 43
0.0
 44
0.0
 50
0.0
 51
0.0
 71
     0
 72
   100
 73
     1
 74
     3
 75
     0
 76
     0
 77
     0
 78
     0
  0
ENDTAB
  0
TABLE
  2
LTYPE
  5
5
330
0
100
AcDbSymbolTable
 70
     1
  0
LTYPE
  5
14
330
5
100
AcDbSymbolTableRecord
100
AcDbLinetypeTableRecord
  2
BYBLOCK
 70
     0
  3

 72
    65
 73
     0
 40
0.0
  0
LTYPE
  5
15
330
5
100
AcDbSymbolTableRecord
100
AcDbLinetypeTableRecord
  2
BYLAYER
 70
     0
  3

 72
    65
 73
     0
 40
0.0
  0
LTYPE
  5
16
330
5
100
AcDbSymbolTableRecord
100
AcDbLinetypeTableRecord
  2
CONTINUOUS
 70
     0
  3
Solid line
 72
    65
 73
     0
 40
0.0
  0
ENDTAB
  0
TABLE
  2
LAYER
  5
2
100
AcDbSymbolTable
 70
2
  0
LAYER
  5
50
100
AcDbSymbolTableRecord
100
AcDbLayerTableRecord
  2
0
 70
0
  6
CONTINUOUS
  0
LAYER
  5
51
100
AcDbSymbolTableRecord
100
AcDbLayerTableRecord
  2
Layer_1
 70
0
  6
CONTINUOUS
  0
ENDTAB
  0
TABLE
  2
STYLE
  5
3
330
0
100
AcDbSymbolTable
 70
     1
  0
STYLE
  5
11
330
3
100
AcDbSymbolTableRecord
100
AcDbTextStyleTableRecord
  2
STANDARD
 70
     0
 40
0.0
 41
1.0
 50
0.0
 71
     0
 42
2.5
  3
txt
  4

  0
ENDTAB
  0
TABLE
  2
VIEW
  5
6
330
0
100
AcDbSymbolTable
 70
     0
  0
ENDTAB
  0
TABLE
  2
UCS
  5
7
330
0
100
AcDbSymbolTable
 70
     0
  0
ENDTAB
  0
TABLE
  2
APPID
  5
9
330
0
100
AcDbSymbolTable
 70
     2
  0
APPID
  5
12
330
9
100
AcDbSymbolTableRecord
100
AcDbRegAppTableRecord
  2
ACAD
 70
     0
  0
ENDTAB
  0
TABLE
  2
DIMSTYLE
  5
A
330
0
100
AcDbSymbolTable
 70
     1
  0
DIMSTYLE
105
27
330
A
100
AcDbSymbolTableRecord
100
AcDbDimStyleTableRecord
  2
ISO-25
 70
     0
  3

  4

  5

  6

  7

 40
1.0
 41
2.5
 42
0.625
 43
3.75
 44
1.25
 45
0.0
 46
0.0
 47
0.0
 48
0.0
140
2.5
141
2.5
142
0.0
143
0.03937007874016
144
1.0
145
0.0
146
1.0
147
0.625
 71
     0
 72
     0
 73
     0
 74
     0
 75
     0
 76
     0
 77
     1
 78
     8
170
     0
171
     3
172
     1
173
     0
174
     0
175
     0
176
     0
177
     0
178
     0
270
     2
271
     2
272
     2
273
     2
274
     3
340
11
275
     0
280
     0
281
     0
282
     0
283
     0
284
     8
285
     0
286
     0
287
     3
288
     0
  0
ENDTAB
  0
TABLE
  2
BLOCK_RECORD
  5
1
330
0
100
AcDbSymbolTable
 70
     1
  0
BLOCK_RECORD
  5
1F
330
1
100
AcDbSymbolTableRecord
100
AcDbBlockTableRecord
  2
*MODEL_SPACE
  0
BLOCK_RECORD
  5
1B
330
1
100
AcDbSymbolTableRecord
100
AcDbBlockTableRecord
  2
*PAPER_SPACE
  0
ENDTAB
  0
ENDSEC
  0
SECTION
  2
BLOCKS
  0
BLOCK
  5
20
330
1F
100
AcDbEntity
  8
0
100
AcDbBlockBegin
  2
*MODEL_SPACE
 70
     0
 10
0.0
 20
0.0
 30
0.0
  3
*MODEL_SPACE
  1

  0
ENDBLK
  5
21
330
1F
100
AcDbEntity
  8
0
100
AcDbBlockEnd
  0
BLOCK
  5
1C
330
1B
100
AcDbEntity
 67
     1
  8
0
100
AcDbBlockBegin
  2
*PAPER_SPACE
  1

  0
ENDBLK
  5
1D
330
1B
100
AcDbEntity
 67
     1
  8
0
100
AcDbBlockEnd
  0
ENDSEC
  0
SECTION
  2
ENTITIES
  0
SPLINE
  5
100
100
AcDbEntity
  8
Layer_1
 62
3
100
AcDbSpline
 70
8
 71
3
 72
8
 73
4
 74
0
 40
0
 40
0
 40
0
 40
0
 40
1
 40
1
 40
1
 40
1
 10
66.467535
 20
13.243250
 30
0.0
 10
65.195899
 20
13.889110
 30
0.0
 10
64.040819
 20
14.488960
 30
0.0
 10
62.987982
 20
15.054530
 30
0.0
  0
SPLINE
  5
101
100
AcDbEntity
  8
Layer_1
 62
3
100
AcDbSpline
 70
8
 71
3
 72
8
 73
4
 74
0
 40
0
 40
0
 40
0
 40
0
 40
1
 40
1
 40
1
 40
1
 10
62.987982
 20
15.054530
 30
0.0
 10
61.935145
 20
15.620090
 30
0.0
 10
60.984550
 20
16.151380
 30
0.0
 10
60.121884
 20
16.660100
 30
0.0
  0
SPLINE
  5
102
100
AcDbEntity
  8
Layer_1
 62
3
100
AcDbSpline
 70
8
 71
3
 72
8
 73
4
 74
0
 40
0
 40
0
 40
0
 40
0
 40
1
 40
1
 40
1
 40
1
 10
60.121884
 20
16.660100
 30
0.0
 10
59.259217
 20
17.168830
 30
0.0
 10
58.484478
 20
17.654990
 30
0.0
 10
57.783352
 20
18.130330
 30
0.0
  0
SPLINE
  5
103
100
AcDbEntity
  8
Layer_1
 62
3
100
AcDbSpline
 70
8
 71
3
 72
8
 73
4
 74
0
 40
0
 40
0
 40
0
 40
0
 40
1
 40
1
 40
1
 40
1
 10
57.783352
 20
18.130330
 30
0.0
 10
57.082227
 20
18.605660
 30
0.0
 10
56.454714
 20
19.070150
 30
0.0
 10
55.886501
 20
19.535540
 30
0.0
  0
SPLINE
  5
104
100
AcDbEntity
  8
Layer_1
 62
3
100
AcDbSpline
 70
8
 71
3
 72
8
 73
4
 74
0
 40
0
 40
0
 40
0
 40
0
 40
1
 40
1
 40
1
 40
1
 10
55.886501
 20
19.535540
 30
0.0
 10
55.318288
 20
20.000930
 30
0.0
 10
54.809373
 20
20.467200
 30
0.0
 10
54.345443
 20
20.946090
 30
0.0
  0
SPLINE
  5
105
100
AcDbEntity
  8
Layer_1
 62
3
100
AcDbSpline
 70
8
 71
3
 72
8
 73
4
 74
0
 40
0
 40
0
 40
0
 40
0
 40
1
 40
1
 40
1
 40
1
 10
54.345443
 20
20.946090
 30
0.0
 10
53.881513
 20
21.424980
 30
0.0
 10
53.462568
 20
21.916480
 30
0.0
 10
53.074292
 20
22.432320
 30
0.0
  0
SPLINE
  5
106
100
AcDbEntity
  8
Layer_1
 62
3
100
AcDbSpline
 70
8
 71
3
 72
8
 73
4
 74
0
 40
0
 40
0
 40
0
 40
0
 40
1
 40
1
 40
1
 40
1
 10
53.074292
 20
22.432320
 30
0.0
 10
52.686017
 20
22.948160
 30
0.0
 10
52.328411
 20
23.488340
 30
0.0
 10
51.987161
 20
24.064580
 30
0.0
  0
SPLINE
  5
107
100
AcDbEntity
  8
Layer_1
 62
3
100
AcDbSpline
 70
8
 71
3
 72
8
 73
4
 74
0
 40
0
 40
0
 40
0
 40
0
 40
1
 40
1
 40
1
 40
1
 10
51.987161
 20
24.064580
 30
0.0
 10
51.645910
 20
24.640820
 30
0.0
 10
51.321016
 20
25.253120
 30
0.0
 10
50.998162
 20
25.913210
 30
0.0
  0
SPLINE
  5
108
100
AcDbEntity
  8
Layer_1
 62
3
100
AcDbSpline
 70
8
 71
3
 72
8
 73
4
 74
0
 40
0
 40
0
 40
0
 40
0
 40
1
 40
1
 40
1
 40
1
 10
50.998162
 20
25.913210
 30
0.0
 10
50.889540
 20
26.135300
 30
0.0
 10
50.780733
 20
26.323900
 30
0.0
 10
50.671227
 20
26.478790
 30
0.0
  0
SPLINE
  5
109
100
AcDbEntity
  8
Layer_1
 62
3
100
AcDbSpline
 70
8
 71
3
 72
8
 73
4
 74
0
 40
0
 40
0
 40
0
 40
0
 40
1
 40
1
 40
1
 40
1
 10
50.671227
 20
26.478790
 30
0.0
 10
50.561721
 20
26.633690
 30
0.0
 10
50.451518
 20
26.754870
 30
0.0
 10
50.340102
 20
26.842140
 30
0.0
  0
SPLINE
  5
10a
100
AcDbEntity
  8
Layer_1
 62
3
100
AcDbSpline
 70
8
 71
3
 72
8
 73
4
 74
0
 40
0
 40
0
 40
0
 40
0
 40
1
 40
1
 40
1
 40
1
 10
50.340102
 20
26.842140
 30
0.0
 10
50.228687
 20
26.929440
 30
0.0
 10
50.116060
 20
26.982760
 30
0.0
 10
50.001709
 20
27.001970
 30
0.0
  0
SPLINE
  5
10b
100
AcDbEntity
  8
Layer_1
 62
3
100
AcDbSpline
 70
8
 71
3
 72
8
 73
4
 74
0
 40
0
 40
0
 40
0
 40
0
 40
1
 40
1
 40
1
 40
1
 10
50.001709
 20
27.001970
 30
0.0
 10
49.887358
 20
27.021170
 30
0.0
 10
49.771282
 20
27.005970
 30
0.0
 10
49.652968
 20
26.956970
 30
0.0
  0
SPLINE
  5
10c
100
AcDbEntity
  8
Layer_1
 62
3
100
AcDbSpline
 70
8
 71
3
 72
8
 73
4
 74
0
 40
0
 40
0
 40
0
 40
0
 40
1
 40
1
 40
1
 40
1
 10
49.652968
 20
26.956970
 30
0.0
 10
49.534655
 20
26.907670
 30
0.0
 10
49.414103
 20
26.824100
 30
0.0
 10
49.290801
 20
26.705930
 30
0.0
  0
SPLINE
  5
10d
100
AcDbEntity
  8
Layer_1
 62
3
100
AcDbSpline
 70
8
 71
3
 72
8
 73
4
 74
0
 40
0
 40
0
 40
0
 40
0
 40
1
 40
1
 40
1
 40
1
 10
49.290801
 20
26.705930
 30
0.0
 10
49.167499
 20
26.587750
 30
0.0
 10
49.041446
 20
26.435020
 30
0.0
 10
48.912129
 20
26.247520
 30
0.0
  0
SPLINE
  5
10e
100
AcDbEntity
  8
Layer_1
 62
3
100
AcDbSpline
 70
8
 71
3
 72
8
 73
4
 74
0
 40
0
 40
0
 40
0
 40
0
 40
1
 40
1
 40
1
 40
1
 10
48.912129
 20
26.247520
 30
0.0
 10
48.782812
 20
26.060010
 30
0.0
 10
48.650232
 20
25.837730
 30
0.0
 10
48.513874
 20
25.580470
 30
0.0
  0
SPLINE
  5
10f
100
AcDbEntity
  8
Layer_1
 62
3
100
AcDbSpline
 70
8
 71
3
 72
8
 73
4
 74
0
 40
0
 40
0
 40
0
 40
0
 40
1
 40
1
 40
1
 40
1
 10
48.513874
 20
25.580470
 30
0.0
 10
48.377515
 20
25.323200
 30
0.0
 10
48.237380
 20
25.030940
 30
0.0
 10
48.092955
 20
24.703490
 30
0.0
  0
SPLINE
  5
110
100
AcDbEntity
  8
Layer_1
 62
3
100
AcDbSpline
 70
8
 71
3
 72
8
 73
4
 74
0
 40
0
 40
0
 40
0
 40
0
 40
1
 40
1
 40
1
 40
1
 10
48.092955
 20
24.703490
 30
0.0
 10
47.889380
 20
24.241920
 30
0.0
 10
47.645998
 20
23.792050
 30
0.0
 10
47.355682
 20
23.348850
 30
0.0
  0
SPLINE
  5
111
100
AcDbEntity
  8
Layer_1
 62
3
100
AcDbSpline
 70
8
 71
3
 72
8
 73
4
 74
0
 40
0
 40
0
 40
0
 40
0
 40
1
 40
1
 40
1
 40
1
 10
47.355682
 20
23.348850
 30
0.0
 10
47.065366
 20
22.905650
 30
0.0
 10
46.728116
 20
22.469130
 30
0.0
 10
46.336801
 20
22.034240
 30
0.0
  0
SPLINE
  5
112
100
AcDbEntity
  8
Layer_1
 62
3
100
AcDbSpline
 70
8
 71
3
 72
8
 73
4
 74
0
 40
0
 40
0
 40
0
 40
0
 40
1
 40
1
 40
1
 40
1
 10
46.336801
 20
22.034240
 30
0.0
 10
45.945485
 20
21.599360
 30
0.0
 10
45.500106
 20
21.166120
 30
0.0
 10
44.993534
 20
20.729500
 30
0.0
  0
SPLINE
  5
113
100
AcDbEntity
  8
Layer_1
 62
3
100
AcDbSpline
 70
8
 71
3
 72
8
 73
4
 74
0
 40
0
 40
0
 40
0
 40
0
 40
1
 40
1
 40
1
 40
1
 10
44.993534
 20
20.729500
 30
0.0
 10
44.486961
 20
20.292880
 30
0.0
 10
43.919195
 20
19.852880
 30
0.0
 10
43.283106
 20
19.404470
 30
0.0
  0
SPLINE
  5
114
100
AcDbEntity
  8
Layer_1
 62
3
100
AcDbSpline
 70
8
 71
3
 72
8
 73
4
 74
0
 40
0
 40
0
 40
0
 40
0
 40
1
 40
1
 40
1
 40
1
 10
43.283106
 20
19.404470
 30
0.0
 10
42.647017
 20
18.956070
 30
0.0
 10
41.942605
 20
18.499260
 30
0.0
 10
41.162741
 20
18.029010
 30
0.0
  0
SPLINE
  5
115
100
AcDbEntity
  8
Layer_1
 62
3
100
AcDbSpline
 70
8
 71
3
 72
8
 73
4
 74
0
 40
0
 40
0
 40
0
 40
0
 40
1
 40
1
 40
1
 40
1
 10
41.162741
 20
18.029010
 30
0.0
 10
40.382877
 20
17.558770
 30
0.0
 10
39.527561
 20
17.075090
 30
0.0
 10
38.589664
 20
16.572960
 30
0.0
  0
SPLINE
  5
116
100
AcDbEntity
  8
Layer_1
 62
3
100
AcDbSpline
 70
8
 71
3
 72
8
 73
4
 74
0
 40
0
 40
0
 40
0
 40
0
 40
1
 40
1
 40
1
 40
1
 10
38.589664
 20
16.572960
 30
0.0
 10
37.651767
 20
16.070820
 30
0.0
 10
36.631288
 20
15.550230
 30
0.0
 10
35.521099
 20
15.006160
 30
0.0
  0
SPLINE
  5
117
100
AcDbEntity
  8
Layer_1
 62
3
100
AcDbSpline
 70
8
 71
3
 72
8
 73
4
 74
0
 40
0
 40
0
 40
0
 40
0
 40
1
 40
1
 40
1
 40
1
 10
35.521099
 20
15.006160
 30
0.0
 10
34.410910
 20
14.462080
 30
0.0
 10
33.211010
 20
13.894530
 30
0.0
 10
31.914270
 20
13.298460
 30
0.0
  0
SPLINE
  5
118
100
AcDbEntity
  8
Layer_1
 62
3
100
AcDbSpline
 70
8
 71
3
 72
8
 73
4
 74
0
 40
0
 40
0
 40
0
 40
0
 40
1
 40
1
 40
1
 40
1
 10
31.914270
 20
13.298460
 30
0.0
 10
30.187284
 20
12.504620
 30
0.0
 10
28.668334
 20
11.815960
 30
0.0
 10
27.337969
 20
11.247230
 30
0.0
  0
SPLINE
  5
119
100
AcDbEntity
  8
Layer_1
 62
3
100
AcDbSpline
 70
8
 71
3
 72
8
 73
4
 74
0
 40
0
 40
0
 40
0
 40
0
 40
1
 40
1
 40
1
 40
1
 10
27.337969
 20
11.247230
 30
0.0
 10
26.007603
 20
10.678500
 30
0.0
 10
24.865822
 20
10.229700
 30
0.0
 10
23.893174
 20
9.915590
 30
0.0
  0
SPLINE
  5
11a
100
AcDbEntity
  8
Layer_1
 62
3
100
AcDbSpline
 70
8
 71
3
 72
8
 73
4
 74
0
 40
0
 40
0
 40
0
 40
0
 40
1
 40
1
 40
1
 40
1
 10
23.893174
 20
9.915590
 30
0.0
 10
22.920526
 20
9.601470
 30
0.0
 10
22.117011
 20
9.422040
 30
0.0
 10
21.463177
 20
9.392050
 30
0.0
  0
SPLINE
  5
11b
100
AcDbEntity
  8
Layer_1
 62
3
100
AcDbSpline
 70
8
 71
3
 72
8
 73
4
 74
0
 40
0
 40
0
 40
0
 40
0
 40
1
 40
1
 40
1
 40
1
 10
21.463177
 20
9.392050
 30
0.0
 10
20.809343
 20
9.362050
 30
0.0
 10
20.305190
 20
9.481550
 30
0.0
 10
19.931268
 20
9.765170
 30
0.0
  0
SPLINE
  5
11c
100
AcDbEntity
  8
Layer_1
 62
3
100
AcDbSpline
 70
8
 71
3
 72
8
 73
4
 74
0
 40
0
 40
0
 40
0
 40
0
 40
1
 40
1
 40
1
 40
1
 10
19.931268
 20
9.765170
 30
0.0
 10
19.557345
 20
10.048830
 30
0.0
 10
19.313653
 20
10.496680
 30
0.0
 10
19.180738
 20
11.123480
 30
0.0
  0
SPLINE
  5
11d
100
AcDbEntity
  8
Layer_1
 62
3
100
AcDbSpline
 70
8
 71
3
 72
8
 73
4
 74
0
 40
0
 40
0
 40
0
 40
0
 40
1
 40
1
 40
1
 40
1
 10
19.180738
 20
11.123480
 30
0.0
 10
19.047824
 20
11.750290
 30
0.0
 10
19.025688
 20
12.556040
 30
0.0
 10
19.094878
 20
13.555510
 30
0.0
  0
SPLINE
  5
11e
100
AcDbEntity
  8
Layer_1
 62
3
100
AcDbSpline
 70
8
 71
3
 72
8
 73
4
 74
0
 40
0
 40
0
 40
0
 40
0
 40
1
 40
1
 40
1
 40
1
 10
19.094878
 20
13.555510
 30
0.0
 10
19.164068
 20
14.554980
 30
0.0
 10
19.324586
 20
15.748160
 30
0.0
 10
19.556979
 20
17.149800
 30
0.0
  0
SPLINE
  5
11f
100
AcDbEntity
  8
Layer_1
 62
3
100
AcDbSpline
 70
8
 71
3
 72
8
 73
4
 74
0
 40
0
 40
0
 40
0
 40
0
 40
1
 40
1
 40
1
 40
1
 10
19.556979
 20
17.149800
 30
0.0
 10
19.789372
 20
18.551440
 30
0.0
 10
20.093641
 20
20.161550
 30
0.0
 10
20.450333
 20
21.994880
 30
0.0
  0
SPLINE
  5
120
100
AcDbEntity
  8
Layer_1
 62
3
100
AcDbSpline
 70
8
 71
3
 72
8
 73
4
 74
0
 40
0
 40
0
 40
0
 40
0
 40
1
 40
1
 40
1
 40
1
 10
20.450333
 20
21.994880
 30
0.0
 10
20.693901
 20
23.246770
 30
0.0
 10
20.944330
 20
24.429090
 30
0.0
 10
21.202280
 20
25.543380
 30
0.0
  0
SPLINE
  5
121
100
AcDbEntity
  8
Layer_1
 62
3
100
AcDbSpline
 70
8
 71
3
 72
8
 73
4
 74
0
 40
0
 40
0
 40
0
 40
0
 40
1
 40
1
 40
1
 40
1
 10
21.202280
 20
25.543380
 30
0.0
 10
21.460230
 20
26.657670
 30
0.0
 10
21.725702
 20
27.703930
 30
0.0
 10
21.999356
 20
28.683700
 30
0.0
  0
SPLINE
  5
122
100
AcDbEntity
  8
Layer_1
 62
3
100
AcDbSpline
 70
8
 71
3
 72
8
 73
4
 74
0
 40
0
 40
0
 40
0
 40
0
 40
1
 40
1
 40
1
 40
1
 10
21.999356
 20
28.683700
 30
0.0
 10
22.273011
 20
29.663470
 30
0.0
 10
22.554847
 20
30.576740
 30
0.0
 10
22.845528
 20
31.425060
 30
0.0
  0
SPLINE
  5
123
100
AcDbEntity
  8
Layer_1
 62
3
100
AcDbSpline
 70
8
 71
3
 72
8
 73
4
 74
0
 40
0
 40
0
 40
0
 40
0
 40
1
 40
1
 40
1
 40
1
 10
22.845528
 20
31.425060
 30
0.0
 10
23.136208
 20
32.273390
 30
0.0
 10
23.435731
 20
33.056760
 30
0.0
 10
23.744759
 20
33.776720
 30
0.0
  0
SPLINE
  5
124
100
AcDbEntity
  8
Layer_1
 62
3
100
AcDbSpline
 70
8
 71
3
 72
8
 73
4
 74
0
 40
0
 40
0
 40
0
 40
0
 40
1
 40
1
 40
1
 40
1
 10
23.744759
 20
33.776720
 30
0.0
 10
24.053787
 20
34.496670
 30
0.0
 10
24.372319
 20
35.153220
 30
0.0
 10
24.701016
 20
35.747890
 30
0.0
  0
SPLINE
  5
125
100
AcDbEntity
  8
Layer_1
 62
3
100
AcDbSpline
 70
8
 71
3
 72
8
 73
4
 74
0
 40
0
 40
0
 40
0
 40
0
 40
1
 40
1
 40
1
 40
1
 10
24.701016
 20
35.747890
 30
0.0
 10
25.029713
 20
36.342570
 30
0.0
 10
25.368576
 20
36.875370
 30
0.0
 10
25.718264
 20
37.347840
 30
0.0
  0
SPLINE
  5
126
100
AcDbEntity
  8
Layer_1
 62
3
100
AcDbSpline
 70
8
 71
3
 72
8
 73
4
 74
0
 40
0
 40
0
 40
0
 40
0
 40
1
 40
1
 40
1
 40
1
 10
25.718264
 20
37.347840
 30
0.0
 10
26.067952
 20
37.820300
 30
0.0
 10
26.428467
 20
38.232440
 30
0.0
 10
26.800468
 20
38.585780
 30
0.0
  0
SPLINE
  5
127
100
AcDbEntity
  8
Layer_1
 62
3
100
AcDbSpline
 70
8
 71
3
 72
8
 73
4
 74
0
 40
0
 40
0
 40
0
 40
0
 40
1
 40
1
 40
1
 40
1
 10
26.800468
 20
38.585780
 30
0.0
 10
27.172469
 20
38.939120
 30
0.0
 10
27.555957
 20
39.233670
 30
0.0
 10
27.951593
 20
39.470960
 30
0.0
  0
SPLINE
  5
128
100
AcDbEntity
  8
Layer_1
 62
3
100
AcDbSpline
 70
8
 71
3
 72
8
 73
4
 74
0
 40
0
 40
0
 40
0
 40
0
 40
1
 40
1
 40
1
 40
1
 10
27.951593
 20
39.470960
 30
0.0
 10
28.253553
 20
39.652070
 30
0.0
 10
28.508245
 20
39.825180
 30
0.0
 10
28.715323
 20
39.990820
 30
0.0
  0
SPLINE
  5
129
100
AcDbEntity
  8
Layer_1
 62
3
100
AcDbSpline
 70
8
 71
3
 72
8
 73
4
 74
0
 40
0
 40
0
 40
0
 40
0
 40
1
 40
1
 40
1
 40
1
 10
28.715323
 20
39.990820
 30
0.0
 10
28.922401
 20
40.156450
 30
0.0
 10
29.081865
 20
40.314620
 30
0.0
 10
29.193371
 20
40.465850
 30
0.0
  0
SPLINE
  5
12a
100
AcDbEntity
  8
Layer_1
 62
3
100
AcDbSpline
 70
8
 71
3
 72
8
 73
4
 74
0
 40
0
 40
0
 40
0
 40
0
 40
1
 40
1
 40
1
 40
1
 10
29.193371
 20
40.465850
 30
0.0
 10
29.304877
 20
40.617080
 30
0.0
 10
29.368424
 20
40.761370
 30
0.0
 10
29.383666
 20
40.899250
 30
0.0
  0
SPLINE
  5
12b
100
AcDbEntity
  8
Layer_1
 62
3
100
AcDbSpline
 70
8
 71
3
 72
8
 73
4
 74
0
 40
0
 40
0
 40
0
 40
0
 40
1
 40
1
 40
1
 40
1
 10
29.383666
 20
40.899250
 30
0.0
 10
29.398906
 20
41.037130
 30
0.0
 10
29.365846
 20
41.168610
 30
0.0
 10
29.284136
 20
41.294200
 30
0.0
  0
SPLINE
  5
12c
100
AcDbEntity
  8
Layer_1
 62
3
100
AcDbSpline
 70
8
 71
3
 72
8
 73
4
 74
0
 40
0
 40
0
 40
0
 40
0
 40
1
 40
1
 40
1
 40
1
 10
29.284136
 20
41.294200
 30
0.0
 10
29.202426
 20
41.419790
 30
0.0
 10
29.072065
 20
41.539510
 30
0.0
 10
28.892711
 20
41.653880
 30
0.0
  0
SPLINE
  5
12d
100
AcDbEntity
  8
Layer_1
 62
3
100
AcDbSpline
 70
8
 71
3
 72
8
 73
4
 74
0
 40
0
 40
0
 40
0
 40
0
 40
1
 40
1
 40
1
 40
1
 10
28.892711
 20
41.653880
 30
0.0
 10
28.713356
 20
41.768250
 30
0.0
 10
28.485006
 20
41.877270
 30
0.0
 10
28.207317
 20
41.981470
 30
0.0
  0
SPLINE
  5
12e
100
AcDbEntity
  8
Layer_1
 62
3
100
AcDbSpline
 70
8
 71
3
 72
8
 73
4
 74
0
 40
0
 40
0
 40
0
 40
0
 40
1
 40
1
 40
1
 40
1
 10
28.207317
 20
41.981470
 30
0.0
 10
27.929627
 20
42.085680
 30
0.0
 10
27.602598
 20
42.185070
 30
0.0
 10
27.225883
 20
42.280170
 30
0.0
  0
SPLINE
  5
12f
100
AcDbEntity
  8
Layer_1
 62
3
100
AcDbSpline
 70
8
 71
3
 72
8
 73
4
 74
0
 40
0
 40
0
 40
0
 40
0
 40
1
 40
1
 40
1
 40
1
 10
27.225883
 20
42.280170
 30
0.0
 10
26.849168
 20
42.375270
 30
0.0
 10
26.422769
 20
42.466080
 30
0.0
 10
25.946338
 20
42.553140
 30
0.0
  0
SPLINE
  5
130
100
AcDbEntity
  8
Layer_1
 62
3
100
AcDbSpline
 70
8
 71
3
 72
8
 73
4
 74
0
 40
0
 40
0
 40
0
 40
0
 40
1
 40
1
 40
1
 40
1
 10
25.946338
 20
42.553140
 30
0.0
 10
25.733190
 20
42.592040
 30
0.0
 10
25.507068
 20
42.638840
 30
0.0
 10
25.271823
 20
42.692080
 30
0.0
  0
SPLINE
  5
131
100
AcDbEntity
  8
Layer_1
 62
3
100
AcDbSpline
 70
8
 71
3
 72
8
 73
4
 74
0
 40
0
 40
0
 40
0
 40
0
 40
1
 40
1
 40
1
 40
1
 10
25.271823
 20
42.692080
 30
0.0
 10
25.036578
 20
42.745380
 30
0.0
 10
24.792210
 20
42.805170
 30
0.0
 10
24.542572
 20
42.870300
 30
0.0
  0
SPLINE
  5
132
100
AcDbEntity
  8
Layer_1
 62
3
100
AcDbSpline
 70
8
 71
3
 72
8
 73
4
 74
0
 40
0
 40
0
 40
0
 40
0
 40
1
 40
1
 40
1
 40
1
 10
24.542572
 20
42.870300
 30
0.0
 10
24.292934
 20
42.935400
 30
0.0
 10
24.038024
 20
43.005880
 30
0.0
 10
23.781696
 20
43.080410
 30
0.0
  0
SPLINE
  5
133
100
AcDbEntity
  8
Layer_1
 62
3
100
AcDbSpline
 70
8
 71
3
 72
8
 73
4
 74
0
 40
0
 40
0
 40
0
 40
0
 40
1
 40
1
 40
1
 40
1
 10
23.781696
 20
43.080410
 30
0.0
 10
23.525368
 20
43.154910
 30
0.0
 10
23.267620
 20
43.233570
 30
0.0
 10
23.012305
 20
43.315050
 30
0.0
  0
SPLINE
  5
134
100
AcDbEntity
  8
Layer_1
 62
3
100
AcDbSpline
 70
8
 71
3
 72
8
 73
4
 74
0
 40
0
 40
0
 40
0
 40
0
 40
1
 40
1
 40
1
 40
1
 10
23.012305
 20
43.315050
 30
0.0
 10
22.756990
 20
43.396550
 30
0.0
 10
22.504107
 20
43.480870
 30
0.0
 10
22.257508
 20
43.566840
 30
0.0
  0
SPLINE
  5
135
100
AcDbEntity
  8
Layer_1
 62
3
100
AcDbSpline
 70
8
 71
3
 72
8
 73
4
 74
0
 40
0
 40
0
 40
0
 40
0
 40
1
 40
1
 40
1
 40
1
 10
22.257508
 20
43.566840
 30
0.0
 10
22.010910
 20
43.652840
 30
0.0
 10
21.770595
 20
43.740400
 30
0.0
 10
21.540417
 20
43.828390
 30
0.0
  0
SPLINE
  5
136
100
AcDbEntity
  8
Layer_1
 62
3
100
AcDbSpline
 70
8
 71
3
 72
8
 73
4
 74
0
 40
0
 40
0
 40
0
 40
0
 40
1
 40
1
 40
1
 40
1
 10
21.540417
 20
43.828390
 30
0.0
 10
21.310238
 20
43.916390
 30
0.0
 10
21.090196
 20
44.004780
 30
0.0
 10
20.884141
 20
44.092350
 30
0.0
  0
SPLINE
  5
137
100
AcDbEntity
  8
Layer_1
 62
3
100
AcDbSpline
 70
8
 71
3
 72
8
 73
4
 74
0
 40
0
 40
0
 40
0
 40
0
 40
1
 40
1
 40
1
 40
1
 10
20.884141
 20
44.092350
 30
0.0
 10
20.678086
 20
44.179950
 30
0.0
 10
20.486018
 20
44.266640
 30
0.0
 10
20.311790
 20
44.351320
 30
0.0
  0
SPLINE
  5
138
100
AcDbEntity
  8
Layer_1
 62
3
100
AcDbSpline
 70
8
 71
3
 72
8
 73
4
 74
0
 40
0
 40
0
 40
0
 40
0
 40
1
 40
1
 40
1
 40
1
 10
20.311790
 20
44.351320
 30
0.0
 10
19.961728
 20
44.521450
 30
0.0
 10
19.423074
 20
44.890780
 30
0.0
 10
18.747998
 20
45.409780
 30
0.0
  0
SPLINE
  5
139
100
AcDbEntity
  8
Layer_1
 62
3
100
AcDbSpline
 70
8
 71
3
 72
8
 73
4
 74
0
 40
0
 40
0
 40
0
 40
0
 40
1
 40
1
 40
1
 40
1
 10
18.747998
 20
45.409780
 30
0.0
 10
18.072921
 20
45.928790
 30
0.0
 10
17.261423
 20
46.597480
 30
0.0
 10
16.365674
 20
47.366360
 30
0.0
  0
SPLINE
  5
13a
100
AcDbEntity
  8
Layer_1
 62
3
100
AcDbSpline
 70
8
 71
3
 72
8
 73
4
 74
0
 40
0
 40
0
 40
0
 40
0
 40
1
 40
1
 40
1
 40
1
 10
16.365674
 20
47.366360
 30
0.0
 10
15.469925
 20
48.135250
 30
0.0
 10
14.489925
 20
49.004310
 30
0.0
 10
13.477845
 20
49.924070
 30
0.0
  0
SPLINE
  5
13b
100
AcDbEntity
  8
Layer_1
 62
3
100
AcDbSpline
 70
8
 71
3
 72
8
 73
4
 74
0
 40
0
 40
0
 40
0
 40
0
 40
1
 40
1
 40
1
 40
1
 10
13.477845
 20
49.924070
 30
0.0
 10
12.465765
 20
50.843820
 30
0.0
 10
11.421605
 20
51.814270
 30
0.0
 10
10.397536
 20
52.785900
 30
0.0
  0
SPLINE
  5
13c
100
AcDbEntity
  8
Layer_1
 62
3
100
AcDbSpline
 70
8
 71
3
 72
8
 73
4
 74
0
 40
0
 40
0
 40
0
 40
0
 40
1
 40
1
 40
1
 40
1
 10
10.397536
 20
52.785900
 30
0.0
 10
9.373467
 20
53.757530
 30
0.0
 10
8.369489
 20
54.730350
 30
0.0
 10
7.437773
 20
55.654860
 30
0.0
  0
SPLINE
  5
13d
100
AcDbEntity
  8
Layer_1
 62
3
100
AcDbSpline
 70
8
 71
3
 72
8
 73
4
 74
0
 40
0
 40
0
 40
0
 40
0
 40
1
 40
1
 40
1
 40
1
 10
7.437773
 20
55.654860
 30
0.0
 10
6.506056
 20
56.579370
 30
0.0
 10
5.646602
 20
57.455570
 30
0.0
 10
4.911580
 20
58.233950
 30
0.0
  0
SPLINE
  5
13e
100
AcDbEntity
  8
Layer_1
 62
3
100
AcDbSpline
 70
8
 71
3
 72
8
 73
4
 74
0
 40
0
 40
0
 40
0
 40
0
 40
1
 40
1
 40
1
 40
1
 10
4.911580
 20
58.233950
 30
0.0
 10
4.176558
 20
59.012340
 30
0.0
 10
3.565968
 20
59.692920
 30
0.0
 10
3.131983
 20
60.226190
 30
0.0
  0
SPLINE
  5
13f
100
AcDbEntity
  8
Layer_1
 62
3
100
AcDbSpline
 70
8
 71
3
 72
8
 73
4
 74
0
 40
0
 40
0
 40
0
 40
0
 40
1
 40
1
 40
1
 40
1
 10
3.131983
 20
60.226190
 30
0.0
 10
2.697997
 20
60.759450
 30
0.0
 10
2.440615
 20
61.145410
 30
0.0
 10
2.412007
 20
61.334560
 30
0.0
  0
SPLINE
  5
140
100
AcDbEntity
  8
Layer_1
 62
3
100
AcDbSpline
 70
8
 71
3
 72
8
 73
4
 74
0
 40
0
 40
0
 40
0
 40
0
 40
1
 40
1
 40
1
 40
1
 10
2.412007
 20
61.334560
 30
0.0
 10
2.402097
 20
61.400060
 30
0.0
 10
2.399913
 20
61.473460
 30
0.0
 10
2.404817
 20
61.553170
 30
0.0
  0
SPLINE
  5
141
100
AcDbEntity
  8
Layer_1
 62
3
100
AcDbSpline
 70
8
 71
3
 72
8
 73
4
 74
0
 40
0
 40
0
 40
0
 40
0
 40
1
 40
1
 40
1
 40
1
 10
2.404817
 20
61.553170
 30
0.0
 10
2.409727
 20
61.632870
 30
0.0
 10
2.421721
 20
61.718890
 30
0.0
 10
2.440181
 20
61.809670
 30
0.0
  0
SPLINE
  5
142
100
AcDbEntity
  8
Layer_1
 62
3
100
AcDbSpline
 70
8
 71
3
 72
8
 73
4
 74
0
 40
0
 40
0
 40
0
 40
0
 40
1
 40
1
 40
1
 40
1
 10
2.440181
 20
61.809670
 30
0.0
 10
2.458641
 20
61.900470
 30
0.0
 10
2.483562
 20
61.995970
 30
0.0
 10
2.514315
 20
62.094690
 30
0.0
  0
SPLINE
  5
143
100
AcDbEntity
  8
Layer_1
 62
3
100
AcDbSpline
 70
8
 71
3
 72
8
 73
4
 74
0
 40
0
 40
0
 40
0
 40
0
 40
1
 40
1
 40
1
 40
1
 10
2.514315
 20
62.094690
 30
0.0
 10
2.545068
 20
62.193390
 30
0.0
 10
2.581651
 20
62.295320
 30
0.0
 10
2.623436
 20
62.398860
 30
0.0
  0
SPLINE
  5
144
100
AcDbEntity
  8
Layer_1
 62
3
100
AcDbSpline
 70
8
 71
3
 72
8
 73
4
 74
0
 40
0
 40
0
 40
0
 40
0
 40
1
 40
1
 40
1
 40
1
 10
2.623436
 20
62.398860
 30
0.0
 10
2.665220
 20
62.502400
 30
0.0
 10
2.712206
 20
62.607580
 30
0.0
 10
2.763761
 20
62.712810
 30
0.0
  0
SPLINE
  5
145
100
AcDbEntity
  8
Layer_1
 62
3
100
AcDbSpline
 70
8
 71
3
 72
8
 73
4
 74
0
 40
0
 40
0
 40
0
 40
0
 40
1
 40
1
 40
1
 40
1
 10
2.763761
 20
62.712810
 30
0.0
 10
2.815317
 20
62.818050
 30
0.0
 10
2.871442
 20
62.923360
 30
0.0
 10
2.931508
 20
63.027170
 30
0.0
  0
SPLINE
  5
146
100
AcDbEntity
  8
Layer_1
 62
3
100
AcDbSpline
 70
8
 71
3
 72
8
 73
4
 74
0
 40
0
 40
0
 40
0
 40
0
 40
1
 40
1
 40
1
 40
1
 10
2.931508
 20
63.027170
 30
0.0
 10
2.991574
 20
63.130980
 30
0.0
 10
3.055580
 20
63.233300
 30
0.0
 10
3.122895
 20
63.332560
 30
0.0
  0
SPLINE
  5
147
100
AcDbEntity
  8
Layer_1
 62
3
100
AcDbSpline
 70
8
 71
3
 72
8
 73
4
 74
0
 40
0
 40
0
 40
0
 40
0
 40
1
 40
1
 40
1
 40
1
 10
3.122895
 20
63.332560
 30
0.0
 10
3.190210
 20
63.431860
 30
0.0
 10
3.260834
 20
63.528020
 30
0.0
 10
3.334138
 20
63.619610
 30
0.0
  0
SPLINE
  5
148
100
AcDbEntity
  8
Layer_1
 62
3
100
AcDbSpline
 70
8
 71
3
 72
8
 73
4
 74
0
 40
0
 40
0
 40
0
 40
0
 40
1
 40
1
 40
1
 40
1
 10
3.334138
 20
63.619610
 30
0.0
 10
3.441391
 20
63.753600
 30
0.0
 10
3.569311
 20
63.879020
 30
0.0
 10
3.726925
 20
63.998030
 30
0.0
  0
SPLINE
  5
149
100
AcDbEntity
  8
Layer_1
 62
3
100
AcDbSpline
 70
8
 71
3
 72
8
 73
4
 74
0
 40
0
 40
0
 40
0
 40
0
 40
1
 40
1
 40
1
 40
1
 10
3.726925
 20
63.998030
 30
0.0
 10
3.884540
 20
64.117030
 30
0.0
 10
4.071850
 20
64.229630
 30
0.0
 10
4.297884
 20
64.337980
 30
0.0
  0
SPLINE
  5
14a
100
AcDbEntity
  8
Layer_1
 62
3
100
AcDbSpline
 70
8
 71
3
 72
8
 73
4
 74
0
 40
0
 40
0
 40
0
 40
0
 40
1
 40
1
 40
1
 40
1
 10
4.297884
 20
64.337980
 30
0.0
 10
4.523917
 20
64.446330
 30
0.0
 10
4.788675
 20
64.550440
 30
0.0
 10
5.101184
 20
64.652460
 30
0.0
  0
SPLINE
  5
14b
100
AcDbEntity
  8
Layer_1
 62
3
100
AcDbSpline
 70
8
 71
3
 72
8
 73
4
 74
0
 40
0
 40
0
 40
0
 40
0
 40
1
 40
1
 40
1
 40
1
 10
5.101184
 20
64.652460
 30
0.0
 10
5.413693
 20
64.754490
 30
0.0
 10
5.773954
 20
64.854440
 30
0.0
 10
6.190996
 20
64.954470
 30
0.0
  0
SPLINE
  5
14c
100
AcDbEntity
  8
Layer_1
 62
3
100
AcDbSpline
 70
8
 71
3
 72
8
 73
4
 74
0
 40
0
 40
0
 40
0
 40
0
 40
1
 40
1
 40
1
 40
1
 10
6.190996
 20
64.954470
 30
0.0
 10
6.608038
 20
65.054500
 30
0.0
 10
7.081860
 20
65.154620
 30
0.0
 10
7.621492
 20
65.257000
 30
0.0
  0
SPLINE
  5
14d
100
AcDbEntity
  8
Layer_1
 62
3
100
AcDbSpline
 70
8
 71
3
 72
8
 73
4
 74
0
 40
0
 40
0
 40
0
 40
0
 40
1
 40
1
 40
1
 40
1
 10
7.621492
 20
65.257000
 30
0.0
 10
8.161123
 20
65.359370
 30
0.0
 10
8.766563
 20
65.463990
 30
0.0
 10
9.446841
 20
65.573030
 30
0.0
  0
SPLINE
  5
14e
100
AcDbEntity
  8
Layer_1
 62
3
100
AcDbSpline
 70
8
 71
3
 72
8
 73
4
 74
0
 40
0
 40
0
 40
0
 40
0
 40
1
 40
1
 40
1
 40
1
 10
9.446841
 20
65.573030
 30
0.0
 10
10.127119
 20
65.682070
 30
0.0
 10
10.882234
 20
65.795530
 30
0.0
 10
11.721214
 20
65.915570
 30
0.0
  0
SPLINE
  5
14f
100
AcDbEntity
  8
Layer_1
 62
3
100
AcDbSpline
 70
8
 71
3
 72
8
 73
4
 74
0
 40
0
 40
0
 40
0
 40
0
 40
1
 40
1
 40
1
 40
1
 10
11.721214
 20
65.915570
 30
0.0
 10
12.560195
 20
66.035610
 30
0.0
 10
13.483042
 20
66.162240
 30
0.0
 10
14.498783
 20
66.297610
 30
0.0
  0
SPLINE
  5
150
100
AcDbEntity
  8
Layer_1
 62
3
100
AcDbSpline
 70
8
 71
3
 72
8
 73
4
 74
0
 40
0
 40
0
 40
0
 40
0
 40
1
 40
1
 40
1
 40
1
 10
14.498783
 20
66.297610
 30
0.0
 10
15.851178
 20
66.477850
 30
0.0
 10
17.115635
 20
66.631410
 30
0.0
 10
18.300913
 20
66.757830
 30
0.0
  0
SPLINE
  5
151
100
AcDbEntity
  8
Layer_1
 62
3
100
AcDbSpline
 70
8
 71
3
 72
8
 73
4
 74
0
 40
0
 40
0
 40
0
 40
0
 40
1
 40
1
 40
1
 40
1
 10
18.300913
 20
66.757830
 30
0.0
 10
19.486192
 20
66.884250
 30
0.0
 10
20.592292
 20
66.983540
 30
0.0
 10
21.627973
 20
67.055250
 30
0.0
  0
SPLINE
  5
152
100
AcDbEntity
  8
Layer_1
 62
3
100
AcDbSpline
 70
8
 71
3
 72
8
 73
4
 74
0
 40
0
 40
0
 40
0
 40
0
 40
1
 40
1
 40
1
 40
1
 10
21.627973
 20
67.055250
 30
0.0
 10
22.663655
 20
67.126950
 30
0.0
 10
23.628917
 20
67.171080
 30
0.0
 10
24.532519
 20
67.187180
 30
0.0
  0
SPLINE
  5
153
100
AcDbEntity
  8
Layer_1
 62
3
100
AcDbSpline
 70
8
 71
3
 72
8
 73
4
 74
0
 40
0
 40
0
 40
0
 40
0
 40
1
 40
1
 40
1
 40
1
 10
24.532519
 20
67.187180
 30
0.0
 10
25.436121
 20
67.203280
 30
0.0
 10
26.278063
 20
67.191180
 30
0.0
 10
27.067104
 20
67.150980
 30
0.0
  0
SPLINE
  5
154
100
AcDbEntity
  8
Layer_1
 62
3
100
AcDbSpline
 70
8
 71
3
 72
8
 73
4
 74
0
 40
0
 40
0
 40
0
 40
0
 40
1
 40
1
 40
1
 40
1
 10
27.067104
 20
67.150980
 30
0.0
 10
27.856145
 20
67.110580
 30
0.0
 10
28.592286
 20
67.041680
 30
0.0
 10
29.284284
 20
66.943870
 30
0.0
  0
SPLINE
  5
155
100
AcDbEntity
  8
Layer_1
 62
3
100
AcDbSpline
 70
8
 71
3
 72
8
 73
4
 74
0
 40
0
 40
0
 40
0
 40
0
 40
1
 40
1
 40
1
 40
1
 10
29.284284
 20
66.943870
 30
0.0
 10
29.976283
 20
66.846070
 30
0.0
 10
30.624141
 20
66.719310
 30
0.0
 10
31.236616
 20
66.563190
 30
0.0
  0
SPLINE
  5
156
100
AcDbEntity
  8
Layer_1
 62
3
100
AcDbSpline
 70
8
 71
3
 72
8
 73
4
 74
0
 40
0
 40
0
 40
0
 40
0
 40
1
 40
1
 40
1
 40
1
 10
31.236616
 20
66.563190
 30
0.0
 10
31.849091
 20
66.407070
 30
0.0
 10
32.426183
 20
66.221570
 30
0.0
 10
32.976653
 20
66.006260
 30
0.0
  0
SPLINE
  5
157
100
AcDbEntity
  8
Layer_1
 62
3
100
AcDbSpline
 70
8
 71
3
 72
8
 73
4
 74
0
 40
0
 40
0
 40
0
 40
0
 40
1
 40
1
 40
1
 40
1
 10
32.976653
 20
66.006260
 30
0.0
 10
33.527122
 20
65.790940
 30
0.0
 10
34.050969
 20
65.545790
 30
0.0
 10
34.556951
 20
65.270380
 30
0.0
  0
SPLINE
  5
158
100
AcDbEntity
  8
Layer_1
 62
3
100
AcDbSpline
 70
8
 71
3
 72
8
 73
4
 74
0
 40
0
 40
0
 40
0
 40
0
 40
1
 40
1
 40
1
 40
1
 10
34.556951
 20
65.270380
 30
0.0
 10
34.979837
 20
65.040190
 30
0.0
 10
35.356270
 20
64.843610
 30
0.0
 10
35.690125
 20
64.683560
 30
0.0
  0
SPLINE
  5
159
100
AcDbEntity
  8
Layer_1
 62
3
100
AcDbSpline
 70
8
 71
3
 72
8
 73
4
 74
0
 40
0
 40
0
 40
0
 40
0
 40
1
 40
1
 40
1
 40
1
 10
35.690125
 20
64.683560
 30
0.0
 10
36.023980
 20
64.523510
 30
0.0
 10
36.315257
 20
64.400000
 30
0.0
 10
36.567832
 20
64.315930
 30
0.0
  0
SPLINE
  5
15a
100
AcDbEntity
  8
Layer_1
 62
3
100
AcDbSpline
 70
8
 71
3
 72
8
 73
4
 74
0
 40
0
 40
0
 40
0
 40
0
 40
1
 40
1
 40
1
 40
1
 10
36.567832
 20
64.315930
 30
0.0
 10
36.820406
 20
64.231830
 30
0.0
 10
37.034279
 20
64.187260
 30
0.0
 10
37.213325
 20
64.185030
 30
0.0
  0
SPLINE
  5
15b
100
AcDbEntity
  8
Layer_1
 62
3
100
AcDbSpline
 70
8
 71
3
 72
8
 73
4
 74
0
 40
0
 40
0
 40
0
 40
0
 40
1
 40
1
 40
1
 40
1
 10
37.213325
 20
64.185030
 30
0.0
 10
37.392371
 20
64.183030
 30
0.0
 10
37.536590
 20
64.222930
 30
0.0
 10
37.649859
 20
64.308390
 30
0.0
  0
SPLINE
  5
15c
100
AcDbEntity
  8
Layer_1
 62
3
100
AcDbSpline
 70
8
 71
3
 72
8
 73
4
 74
0
 40
0
 40
0
 40
0
 40
0
 40
1
 40
1
 40
1
 40
1
 10
37.649859
 20
64.308390
 30
0.0
 10
37.763128
 20
64.393890
 30
0.0
 10
37.845445
 20
64.524590
 30
0.0
 10
37.900688
 20
64.703570
 30
0.0
  0
SPLINE
  5
15d
100
AcDbEntity
  8
Layer_1
 62
3
100
AcDbSpline
 70
8
 71
3
 72
8
 73
4
 74
0
 40
0
 40
0
 40
0
 40
0
 40
1
 40
1
 40
1
 40
1
 10
37.900688
 20
64.703570
 30
0.0
 10
37.955928
 20
64.882550
 30
0.0
 10
37.984098
 20
65.109750
 30
0.0
 10
37.989068
 20
65.388100
 30
0.0
  0
SPLINE
  5
15e
100
AcDbEntity
  8
Layer_1
 62
3
100
AcDbSpline
 70
8
 71
3
 72
8
 73
4
 74
0
 40
0
 40
0
 40
0
 40
0
 40
1
 40
1
 40
1
 40
1
 10
37.989068
 20
65.388100
 30
0.0
 10
37.994068
 20
65.666450
 30
0.0
 10
37.975808
 20
65.995950
 30
0.0
 10
37.938248
 20
66.379520
 30
0.0
  0
SPLINE
  5
15f
100
AcDbEntity
  8
Layer_1
 62
3
100
AcDbSpline
 70
8
 71
3
 72
8
 73
4
 74
0
 40
0
 40
0
 40
0
 40
0
 40
1
 40
1
 40
1
 40
1
 10
37.938248
 20
66.379520
 30
0.0
 10
37.900688
 20
66.763090
 30
0.0
 10
37.843818
 20
67.200740
 30
0.0
 10
37.771485
 20
67.695380
 30
0.0
  0
SPLINE
  5
160
100
AcDbEntity
  8
Layer_1
 62
3
100
AcDbSpline
 70
8
 71
3
 72
8
 73
4
 74
0
 40
0
 40
0
 40
0
 40
0
 40
1
 40
1
 40
1
 40
1
 10
37.771485
 20
67.695380
 30
0.0
 10
37.735935
 20
67.937950
 30
0.0
 10
37.708255
 20
68.197560
 30
0.0
 10
37.688115
 20
68.469590
 30
0.0
  0
SPLINE
  5
161
100
AcDbEntity
  8
Layer_1
 62
3
100
AcDbSpline
 70
8
 71
3
 72
8
 73
4
 74
0
 40
0
 40
0
 40
0
 40
0
 40
1
 40
1
 40
1
 40
1
 10
37.688115
 20
68.469590
 30
0.0
 10
37.667975
 20
68.741630
 30
0.0
 10
37.655365
 20
69.026100
 30
0.0
 10
37.649955
 20
69.318400
 30
0.0
  0
SPLINE
  5
162
100
AcDbEntity
  8
Layer_1
 62
3
100
AcDbSpline
 70
8
 71
3
 72
8
 73
4
 74
0
 40
0
 40
0
 40
0
 40
0
 40
1
 40
1
 40
1
 40
1
 10
37.649955
 20
69.318400
 30
0.0
 10
37.644555
 20
69.610700
 30
0.0
 10
37.646355
 20
69.910820
 30
0.0
 10
37.654955
 20
70.214170
 30
0.0
  0
SPLINE
  5
163
100
AcDbEntity
  8
Layer_1
 62
3
100
AcDbSpline
 70
8
 71
3
 72
8
 73
4
 74
0
 40
0
 40
0
 40
0
 40
0
 40
1
 40
1
 40
1
 40
1
 10
37.654955
 20
70.214170
 30
0.0
 10
37.663655
 20
70.517510
 30
0.0
 10
37.679125
 20
70.824080
 30
0.0
 10
37.701165
 20
71.129270
 30
0.0
  0
SPLINE
  5
164
100
AcDbEntity
  8
Layer_1
 62
3
100
AcDbSpline
 70
8
 71
3
 72
8
 73
4
 74
0
 40
0
 40
0
 40
0
 40
0
 40
1
 40
1
 40
1
 40
1
 10
37.701165
 20
71.129270
 30
0.0
 10
37.723205
 20
71.434450
 30
0.0
 10
37.751775
 20
71.738260
 30
0.0
 10
37.786535
 20
72.036080
 30
0.0
  0
SPLINE
  5
165
100
AcDbEntity
  8
Layer_1
 62
3
100
AcDbSpline
 70
8
 71
3
 72
8
 73
4
 74
0
 40
0
 40
0
 40
0
 40
0
 40
1
 40
1
 40
1
 40
1
 10
37.786535
 20
72.036080
 30
0.0
 10
37.821295
 20
72.333900
 30
0.0
 10
37.862245
 20
72.625730
 30
0.0
 10
37.909055
 20
72.906970
 30
0.0
  0
SPLINE
  5
166
100
AcDbEntity
  8
Layer_1
 62
3
100
AcDbSpline
 70
8
 71
3
 72
8
 73
4
 74
0
 40
0
 40
0
 40
0
 40
0
 40
1
 40
1
 40
1
 40
1
 10
37.909055
 20
72.906970
 30
0.0
 10
37.955865
 20
73.188210
 30
0.0
 10
38.008525
 20
73.458860
 30
0.0
 10
38.066706
 20
73.714310
 30
0.0
  0
SPLINE
  5
167
100
AcDbEntity
  8
Layer_1
 62
3
100
AcDbSpline
 70
8
 71
3
 72
8
 73
4
 74
0
 40
0
 40
0
 40
0
 40
0
 40
1
 40
1
 40
1
 40
1
 10
38.066706
 20
73.714310
 30
0.0
 10
38.124886
 20
73.969760
 30
0.0
 10
38.188587
 20
74.210020
 30
0.0
 10
38.257471
 20
74.430480
 30
0.0
  0
SPLINE
  5
168
100
AcDbEntity
  8
Layer_1
 62
3
100
AcDbSpline
 70
8
 71
3
 72
8
 73
4
 74
0
 40
0
 40
0
 40
0
 40
0
 40
1
 40
1
 40
1
 40
1
 10
38.257471
 20
74.430480
 30
0.0
 10
38.427358
 20
74.974160
 30
0.0
 10
38.719621
 20
75.704990
 30
0.0
 10
39.103293
 20
76.567960
 30
0.0
  0
SPLINE
  5
169
100
AcDbEntity
  8
Layer_1
 62
3
100
AcDbSpline
 70
8
 71
3
 72
8
 73
4
 74
0
 40
0
 40
0
 40
0
 40
0
 40
1
 40
1
 40
1
 40
1
 10
39.103293
 20
76.567960
 30
0.0
 10
39.486965
 20
77.430930
 30
0.0
 10
39.962047
 20
78.426040
 30
0.0
 10
40.497574
 20
79.498290
 30
0.0
  0
SPLINE
  5
16a
100
AcDbEntity
  8
Layer_1
 62
3
100
AcDbSpline
 70
8
 71
3
 72
8
 73
4
 74
0
 40
0
 40
0
 40
0
 40
0
 40
1
 40
1
 40
1
 40
1
 10
40.497574
 20
79.498290
 30
0.0
 10
41.033101
 20
80.570530
 30
0.0
 10
41.629073
 20
81.719910
 30
0.0
 10
42.254525
 20
82.891410
 30
0.0
  0
SPLINE
  5
16b
100
AcDbEntity
  8
Layer_1
 62
3
100
AcDbSpline
 70
8
 71
3
 72
8
 73
4
 74
0
 40
0
 40
0
 40
0
 40
0
 40
1
 40
1
 40
1
 40
1
 10
42.254525
 20
82.891410
 30
0.0
 10
42.879977
 20
84.062920
 30
0.0
 10
43.534908
 20
85.256560
 30
0.0
 10
44.188355
 20
86.417320
 30
0.0
  0
SPLINE
  5
16c
100
AcDbEntity
  8
Layer_1
 62
3
100
AcDbSpline
 70
8
 71
3
 72
8
 73
4
 74
0
 40
0
 40
0
 40
0
 40
0
 40
1
 40
1
 40
1
 40
1
 10
44.188355
 20
86.417320
 30
0.0
 10
44.841801
 20
87.578080
 30
0.0
 10
45.493763
 20
88.705960
 30
0.0
 10
46.113274
 20
89.745970
 30
0.0
  0
SPLINE
  5
16d
100
AcDbEntity
  8
Layer_1
 62
3
100
AcDbSpline
 70
8
 71
3
 72
8
 73
4
 74
0
 40
0
 40
0
 40
0
 40
0
 40
1
 40
1
 40
1
 40
1
 10
46.113274
 20
89.745970
 30
0.0
 10
46.732785
 20
90.785970
 30
0.0
 10
47.319847
 20
91.738090
 30
0.0
 10
47.843493
 20
92.547330
 30
0.0
  0
SPLINE
  5
16e
100
AcDbEntity
  8
Layer_1
 62
3
100
AcDbSpline
 70
8
 71
3
 72
8
 73
4
 74
0
 40
0
 40
0
 40
0
 40
0
 40
1
 40
1
 40
1
 40
1
 10
47.843493
 20
92.547330
 30
0.0
 10
48.367139
 20
93.356560
 30
0.0
 10
48.827370
 20
94.022910
 30
0.0
 10
49.193221
 20
94.491370
 30
0.0
  0
SPLINE
  5
16f
100
AcDbEntity
  8
Layer_1
 62
3
100
AcDbSpline
 70
8
 71
3
 72
8
 73
4
 74
0
 40
0
 40
0
 40
0
 40
0
 40
1
 40
1
 40
1
 40
1
 10
49.193221
 20
94.491370
 30
0.0
 10
49.559072
 20
94.959830
 30
0.0
 10
49.830542
 20
95.230390
 30
0.0
 10
49.976668
 20
95.248060
 30
0.0
  0
SPLINE
  5
170
100
AcDbEntity
  8
Layer_1
 62
3
100
AcDbSpline
 70
8
 71
3
 72
8
 73
4
 74
0
 40
0
 40
0
 40
0
 40
0
 40
1
 40
1
 40
1
 40
1
 10
49.976668
 20
95.248060
 30
0.0
 10
50.241192
 20
95.280060
 30
0.0
 10
50.491279
 20
95.285460
 30
0.0
 10
50.734817
 20
95.255060
 30
0.0
  0
SPLINE
  5
171
100
AcDbEntity
  8
Layer_1
 62
3
100
AcDbSpline
 70
8
 71
3
 72
8
 73
4
 74
0
 40
0
 40
0
 40
0
 40
0
 40
1
 40
1
 40
1
 40
1
 10
50.734817
 20
95.255060
 30
0.0
 10
50.978356
 20
95.224260
 30
0.0
 10
51.215346
 20
95.157260
 30
0.0
 10
51.453678
 20
95.044560
 30
0.0
  0
SPLINE
  5
172
100
AcDbEntity
  8
Layer_1
 62
3
100
AcDbSpline
 70
8
 71
3
 72
8
 73
4
 74
0
 40
0
 40
0
 40
0
 40
0
 40
1
 40
1
 40
1
 40
1
 10
51.453678
 20
95.044560
 30
0.0
 10
51.692009
 20
94.931820
 30
0.0
 10
51.931682
 20
94.773310
 30
0.0
 10
52.180585
 20
94.559460
 30
0.0
  0
SPLINE
  5
173
100
AcDbEntity
  8
Layer_1
 62
3
100
AcDbSpline
 70
8
 71
3
 72
8
 73
4
 74
0
 40
0
 40
0
 40
0
 40
0
 40
1
 40
1
 40
1
 40
1
 10
52.180585
 20
94.559460
 30
0.0
 10
52.429487
 20
94.345610
 30
0.0
 10
52.687621
 20
94.076420
 30
0.0
 10
52.962874
 20
93.742310
 30
0.0
  0
SPLINE
  5
174
100
AcDbEntity
  8
Layer_1
 62
3
100
AcDbSpline
 70
8
 71
3
 72
8
 73
4
 74
0
 40
0
 40
0
 40
0
 40
0
 40
1
 40
1
 40
1
 40
1
 10
52.962874
 20
93.742310
 30
0.0
 10
53.238127
 20
93.408200
 30
0.0
 10
53.530500
 20
93.009180
 30
0.0
 10
53.847882
 20
92.535670
 30
0.0
  0
SPLINE
  5
175
100
AcDbEntity
  8
Layer_1
 62
3
100
AcDbSpline
 70
8
 71
3
 72
8
 73
4
 74
0
 40
0
 40
0
 40
0
 40
0
 40
1
 40
1
 40
1
 40
1
 10
53.847882
 20
92.535670
 30
0.0
 10
54.165265
 20
92.062150
 30
0.0
 10
54.507656
 20
91.514150
 30
0.0
 10
54.882946
 20
90.882080
 30
0.0
  0
SPLINE
  5
176
100
AcDbEntity
  8
Layer_1
 62
3
100
AcDbSpline
 70
8
 71
3
 72
8
 73
4
 74
0
 40
0
 40
0
 40
0
 40
0
 40
1
 40
1
 40
1
 40
1
 10
54.882946
 20
90.882080
 30
0.0
 10
55.258235
 20
90.250010
 30
0.0
 10
55.666423
 20
89.533880
 30
0.0
 10
56.115399
 20
88.724110
 30
0.0
  0
SPLINE
  5
177
100
AcDbEntity
  8
Layer_1
 62
3
100
AcDbSpline
 70
8
 71
3
 72
8
 73
4
 74
0
 40
0
 40
0
 40
0
 40
0
 40
1
 40
1
 40
1
 40
1
 10
56.115399
 20
88.724110
 30
0.0
 10
56.564375
 20
87.914340
 30
0.0
 10
57.054139
 20
87.010920
 30
0.0
 10
57.592580
 20
86.004300
 30
0.0
  0
SPLINE
  5
178
100
AcDbEntity
  8
Layer_1
 62
3
100
AcDbSpline
 70
8
 71
3
 72
8
 73
4
 74
0
 40
0
 40
0
 40
0
 40
0
 40
1
 40
1
 40
1
 40
1
 10
57.592580
 20
86.004300
 30
0.0
 10
58.281931
 20
84.715550
 30
0.0
 10
58.905013
 20
83.521800
 30
0.0
 10
59.465627
 20
82.410430
 30
0.0
  0
SPLINE
  5
179
100
AcDbEntity
  8
Layer_1
 62
3
100
AcDbSpline
 70
8
 71
3
 72
8
 73
4
 74
0
 40
0
 40
0
 40
0
 40
0
 40
1
 40
1
 40
1
 40
1
 10
59.465627
 20
82.410430
 30
0.0
 10
60.026241
 20
81.299070
 30
0.0
 10
60.524388
 20
80.270090
 30
0.0
 10
60.963867
 20
79.310870
 30
0.0
  0
SPLINE
  5
17a
100
AcDbEntity
  8
Layer_1
 62
3
100
AcDbSpline
 70
8
 71
3
 72
8
 73
4
 74
0
 40
0
 40
0
 40
0
 40
0
 40
1
 40
1
 40
1
 40
1
 10
60.963867
 20
79.310870
 30
0.0
 10
61.403346
 20
78.351650
 30
0.0
 10
61.784158
 20
77.462190
 30
0.0
 10
62.110104
 20
76.629880
 30
0.0
  0
SPLINE
  5
17b
100
AcDbEntity
  8
Layer_1
 62
3
100
AcDbSpline
 70
8
 71
3
 72
8
 73
4
 74
0
 40
0
 40
0
 40
0
 40
0
 40
1
 40
1
 40
1
 40
1
 10
62.110104
 20
76.629880
 30
0.0
 10
62.436049
 20
75.797560
 30
0.0
 10
62.707128
 20
75.022390
 30
0.0
 10
62.927141
 20
74.291730
 30
0.0
  0
SPLINE
  5
17c
100
AcDbEntity
  8
Layer_1
 62
3
100
AcDbSpline
 70
8
 71
3
 72
8
 73
4
 74
0
 40
0
 40
0
 40
0
 40
0
 40
1
 40
1
 40
1
 40
1
 10
62.927141
 20
74.291730
 30
0.0
 10
63.147154
 20
73.561070
 30
0.0
 10
63.316100
 20
72.874930
 30
0.0
 10
63.437782
 20
72.220690
 30
0.0
  0
SPLINE
  5
17d
100
AcDbEntity
  8
Layer_1
 62
3
100
AcDbSpline
 70
8
 71
3
 72
8
 73
4
 74
0
 40
0
 40
0
 40
0
 40
0
 40
1
 40
1
 40
1
 40
1
 10
63.437782
 20
72.220690
 30
0.0
 10
63.559463
 20
71.566450
 30
0.0
 10
63.633879
 20
70.944110
 30
0.0
 10
63.664830
 20
70.341040
 30
0.0
  0
SPLINE
  5
17e
100
AcDbEntity
  8
Layer_1
 62
3
100
AcDbSpline
 70
8
 71
3
 72
8
 73
4
 74
0
 40
0
 40
0
 40
0
 40
0
 40
1
 40
1
 40
1
 40
1
 10
63.664830
 20
70.341040
 30
0.0
 10
63.695780
 20
69.737970
 30
0.0
 10
63.683270
 20
69.154180
 30
0.0
 10
63.631090
 20
68.577040
 30
0.0
  0
SPLINE
  5
17f
100
AcDbEntity
  8
Layer_1
 62
3
100
AcDbSpline
 70
8
 71
3
 72
8
 73
4
 74
0
 40
0
 40
0
 40
0
 40
0
 40
1
 40
1
 40
1
 40
1
 10
63.631090
 20
68.577040
 30
0.0
 10
63.578910
 20
67.999910
 30
0.0
 10
63.487071
 20
67.429420
 30
0.0
 10
63.359365
 20
66.852970
 30
0.0
  0
SPLINE
  5
180
100
AcDbEntity
  8
Layer_1
 62
3
100
AcDbSpline
 70
8
 71
3
 72
8
 73
4
 74
0
 40
0
 40
0
 40
0
 40
0
 40
1
 40
1
 40
1
 40
1
 10
64.701707
 20
64.230780
 30
0.0
 10
65.572531
 20
64.556510
 30
0.0
 10
66.382065
 20
64.843880
 30
0.0
 10
67.153244
 20
65.094040
 30
0.0
  0
SPLINE
  5
181
100
AcDbEntity
  8
Layer_1
 62
3
100
AcDbSpline
 70
8
 71
3
 72
8
 73
4
 74
0
 40
0
 40
0
 40
0
 40
0
 40
1
 40
1
 40
1
 40
1
 10
67.153244
 20
65.094040
 30
0.0
 10
67.924423
 20
65.344210
 30
0.0
 10
68.657246
 20
65.557160
 30
0.0
 10
69.374649
 20
65.734040
 30
0.0
  0
SPLINE
  5
182
100
AcDbEntity
  8
Layer_1
 62
3
100
AcDbSpline
 70
8
 71
3
 72
8
 73
4
 74
0
 40
0
 40
0
 40
0
 40
0
 40
1
 40
1
 40
1
 40
1
 10
69.374649
 20
65.734040
 30
0.0
 10
70.092053
 20
65.910920
 30
0.0
 10
70.794036
 20
66.051730
 30
0.0
 10
71.503535
 20
66.157610
 30
0.0
  0
SPLINE
  5
183
100
AcDbEntity
  8
Layer_1
 62
3
100
AcDbSpline
 70
8
 71
3
 72
8
 73
4
 74
0
 40
0
 40
0
 40
0
 40
0
 40
1
 40
1
 40
1
 40
1
 10
71.503535
 20
66.157610
 30
0.0
 10
72.213033
 20
66.263490
 30
0.0
 10
72.930047
 20
66.334440
 30
0.0
 10
73.677512
 20
66.371600
 30
0.0
  0
SPLINE
  5
184
100
AcDbEntity
  8
Layer_1
 62
3
100
AcDbSpline
 70
8
 71
3
 72
8
 73
4
 74
0
 40
0
 40
0
 40
0
 40
0
 40
1
 40
1
 40
1
 40
1
 10
73.677512
 20
66.371600
 30
0.0
 10
74.424977
 20
66.408800
 30
0.0
 10
75.202892
 20
66.412100
 30
0.0
 10
76.034193
 20
66.382800
 30
0.0
  0
SPLINE
  5
185
100
AcDbEntity
  8
Layer_1
 62
3
100
AcDbSpline
 70
8
 71
3
 72
8
 73
4
 74
0
 40
0
 40
0
 40
0
 40
0
 40
1
 40
1
 40
1
 40
1
 10
76.034193
 20
66.382800
 30
0.0
 10
76.865495
 20
66.353500
 30
0.0
 10
77.750182
 20
66.291600
 30
0.0
 10
78.711191
 20
66.198150
 30
0.0
  0
SPLINE
  5
186
100
AcDbEntity
  8
Layer_1
 62
3
100
AcDbSpline
 70
8
 71
3
 72
8
 73
4
 74
0
 40
0
 40
0
 40
0
 40
0
 40
1
 40
1
 40
1
 40
1
 10
78.711191
 20
66.198150
 30
0.0
 10
79.672199
 20
66.104750
 30
0.0
 10
80.709529
 20
65.979750
 30
0.0
 10
81.846115
 20
65.824430
 30
0.0
  0
SPLINE
  5
187
100
AcDbEntity
  8
Layer_1
 62
3
100
AcDbSpline
 70
8
 71
3
 72
8
 73
4
 74
0
 40
0
 40
0
 40
0
 40
0
 40
1
 40
1
 40
1
 40
1
 10
81.846115
 20
65.824430
 30
0.0
 10
82.982702
 20
65.669110
 30
0.0
 10
84.218545
 20
65.483420
 30
0.0
 10
85.576580
 20
65.268500
 30
0.0
  0
SPLINE
  5
188
100
AcDbEntity
  8
Layer_1
 62
3
100
AcDbSpline
 70
8
 71
3
 72
8
 73
4
 74
0
 40
0
 40
0
 40
0
 40
0
 40
1
 40
1
 40
1
 40
1
 10
85.576580
 20
65.268500
 30
0.0
 10
87.524247
 20
64.960260
 30
0.0
 10
89.234998
 20
64.677160
 30
0.0
 10
90.718193
 20
64.400020
 30
0.0
  0
SPLINE
  5
189
100
AcDbEntity
  8
Layer_1
 62
3
100
AcDbSpline
 70
8
 71
3
 72
8
 73
4
 74
0
 40
0
 40
0
 40
0
 40
0
 40
1
 40
1
 40
1
 40
1
 10
90.718193
 20
64.400020
 30
0.0
 10
92.201388
 20
64.122880
 30
0.0
 10
93.457028
 20
63.851710
 30
0.0
 10
94.494470
 20
63.567340
 30
0.0
  0
SPLINE
  5
18a
100
AcDbEntity
  8
Layer_1
 62
3
100
AcDbSpline
 70
8
 71
3
 72
8
 73
4
 74
0
 40
0
 40
0
 40
0
 40
0
 40
1
 40
1
 40
1
 40
1
 10
94.494470
 20
63.567340
 30
0.0
 10
95.531913
 20
63.282970
 30
0.0
 10
96.351159
 20
62.985400
 30
0.0
 10
96.961568
 20
62.655470
 30
0.0
  0
SPLINE
  5
18b
100
AcDbEntity
  8
Layer_1
 62
3
100
AcDbSpline
 70
8
 71
3
 72
8
 73
4
 74
0
 40
0
 40
0
 40
0
 40
0
 40
1
 40
1
 40
1
 40
1
 10
96.961568
 20
62.655470
 30
0.0
 10
97.571977
 20
62.325530
 30
0.0
 10
97.973549
 20
61.963240
 30
0.0
 10
98.175644
 20
61.549410
 30
0.0
  0
SPLINE
  5
18c
100
AcDbEntity
  8
Layer_1
 62
3
100
AcDbSpline
 70
8
 71
3
 72
8
 73
4
 74
0
 40
0
 40
0
 40
0
 40
0
 40
1
 40
1
 40
1
 40
1
 10
98.175644
 20
61.549410
 30
0.0
 10
98.377738
 20
61.135580
 30
0.0
 10
98.380355
 20
60.670230
 30
0.0
 10
98.192854
 20
60.134180
 30
0.0
  0
SPLINE
  5
18d
100
AcDbEntity
  8
Layer_1
 62
3
100
AcDbSpline
 70
8
 71
3
 72
8
 73
4
 74
0
 40
0
 40
0
 40
0
 40
0
 40
1
 40
1
 40
1
 40
1
 10
98.192854
 20
60.134180
 30
0.0
 10
98.005353
 20
59.598130
 30
0.0
 10
97.627734
 20
58.991380
 30
0.0
 10
97.069357
 20
58.294770
 30
0.0
  0
SPLINE
  5
18e
100
AcDbEntity
  8
Layer_1
 62
3
100
AcDbSpline
 70
8
 71
3
 72
8
 73
4
 74
0
 40
0
 40
0
 40
0
 40
0
 40
1
 40
1
 40
1
 40
1
 10
97.069357
 20
58.294770
 30
0.0
 10
96.510979
 20
57.598170
 30
0.0
 10
95.771843
 20
56.811700
 30
0.0
 10
94.861308
 20
55.916210
 30
0.0
  0
SPLINE
  5
18f
100
AcDbEntity
  8
Layer_1
 62
3
100
AcDbSpline
 70
8
 71
3
 72
8
 73
4
 74
0
 40
0
 40
0
 40
0
 40
0
 40
1
 40
1
 40
1
 40
1
 10
94.861308
 20
55.916210
 30
0.0
 10
93.950773
 20
55.020720
 30
0.0
 10
92.868839
 20
54.016210
 30
0.0
 10
91.624865
 20
52.883500
 30
0.0
  0
SPLINE
  5
190
100
AcDbEntity
  8
Layer_1
 62
3
100
AcDbSpline
 70
8
 71
3
 72
8
 73
4
 74
0
 40
0
 40
0
 40
0
 40
0
 40
1
 40
1
 40
1
 40
1
 10
91.624865
 20
52.883500
 30
0.0
 10
90.554830
 20
51.909170
 30
0.0
 10
89.549091
 20
51.013010
 30
0.0
 10
88.598712
 20
50.189400
 30
0.0
  0
SPLINE
  5
191
100
AcDbEntity
  8
Layer_1
 62
3
100
AcDbSpline
 70
8
 71
3
 72
8
 73
4
 74
0
 40
0
 40
0
 40
0
 40
0
 40
1
 40
1
 40
1
 40
1
 10
88.598712
 20
50.189400
 30
0.0
 10
87.648334
 20
49.365790
 30
0.0
 10
86.753315
 20
48.614740
 30
0.0
 10
85.904720
 20
47.930620
 30
0.0
  0
SPLINE
  5
192
100
AcDbEntity
  8
Layer_1
 62
3
100
AcDbSpline
 70
8
 71
3
 72
8
 73
4
 74
0
 40
0
 40
0
 40
0
 40
0
 40
1
 40
1
 40
1
 40
1
 10
85.904720
 20
47.930620
 30
0.0
 10
85.056126
 20
47.246500
 30
0.0
 10
84.253956
 20
46.629320
 30
0.0
 10
83.489275
 20
46.073460
 30
0.0
  0
SPLINE
  5
193
100
AcDbEntity
  8
Layer_1
 62
3
100
AcDbSpline
 70
8
 71
3
 72
8
 73
4
 74
0
 40
0
 40
0
 40
0
 40
0
 40
1
 40
1
 40
1
 40
1
 10
83.489275
 20
46.073460
 30
0.0
 10
82.724595
 20
45.517610
 30
0.0
 10
81.997403
 20
45.023080
 30
0.0
 10
81.298765
 20
44.584260
 30
0.0
  0
SPLINE
  5
194
100
AcDbEntity
  8
Layer_1
 62
3
100
AcDbSpline
 70
8
 71
3
 72
8
 73
4
 74
0
 40
0
 40
0
 40
0
 40
0
 40
1
 40
1
 40
1
 40
1
 10
81.298765
 20
44.584260
 30
0.0
 10
80.600127
 20
44.145440
 30
0.0
 10
79.930042
 20
43.762340
 30
0.0
 10
79.279576
 20
43.429340
 30
0.0
  0
SPLINE
  5
195
100
AcDbEntity
  8
Layer_1
 62
3
100
AcDbSpline
 70
8
 71
3
 72
8
 73
4
 74
0
 40
0
 40
0
 40
0
 40
0
 40
1
 40
1
 40
1
 40
1
 10
79.279576
 20
43.429340
 30
0.0
 10
78.629110
 20
43.096340
 30
0.0
 10
77.998261
 20
42.813440
 30
0.0
 10
77.378095
 20
42.575020
 30
0.0
  0
SPLINE
  5
196
100
AcDbEntity
  8
Layer_1
 62
3
100
AcDbSpline
 70
8
 71
3
 72
8
 73
4
 74
0
 40
0
 40
0
 40
0
 40
0
 40
1
 40
1
 40
1
 40
1
 10
77.378095
 20
42.575020
 30
0.0
 10
76.757930
 20
42.336610
 30
0.0
 10
76.148446
 20
42.142680
 30
0.0
 10
75.540710
 20
41.987630
 30
0.0
  0
SPLINE
  5
197
100
AcDbEntity
  8
Layer_1
 62
3
100
AcDbSpline
 70
8
 71
3
 72
8
 73
4
 74
0
 40
0
 40
0
 40
0
 40
0
 40
1
 40
1
 40
1
 40
1
 10
75.540710
 20
41.987630
 30
0.0
 10
74.932974
 20
41.832580
 30
0.0
 10
74.326985
 20
41.716400
 30
0.0
 10
73.713808
 20
41.633490
 30
0.0
  0
LWPOLYLINE
  5
198
100
AcDbEntity
  8
Layer_1
 62
3
100
AcDbPolyline
 90
17
 70
0
 10
63.359365
 20
66.852970
 30
0.0
 10
63.265015
 20
66.427110
 30
0.0
 10
63.170665
 20
66.001250
 30
0.0
 10
63.076315
 20
65.575390
 30
0.0
 10
62.981965
 20
65.149520
 30
0.0
 10
62.887615
 20
64.723660
 30
0.0
 10
62.793265
 20
64.297800
 30
0.0
 10
62.698915
 20
63.871940
 30
0.0
 10
62.604565
 20
63.446080
 30
0.0
 10
62.866708
 20
63.544180
 30
0.0
 10
63.128851
 20
63.642280
 30
0.0
 10
63.390993
 20
63.740380
 30
0.0
 10
63.653136
 20
63.838380
 30
0.0
 10
63.915279
 20
63.936480
 30
0.0
 10
64.177422
 20
64.034580
 30
0.0
 10
64.439564
 20
64.132680
 30
0.0
 10
64.701707
 20
64.230780
 30
0.0
  0
SPLINE
  5
199
100
AcDbEntity
  8
Layer_1
 62
3
100
AcDbSpline
 70
8
 71
3
 72
8
 73
4
 74
0
 40
0
 40
0
 40
0
 40
0
 40
1
 40
1
 40
1
 40
1
 10
72.794953
 20
38.284290
 30
0.0
 10
73.243049
 20
37.844180
 30
0.0
 10
73.662627
 20
37.385280
 30
0.0
 10
74.056848
 20
36.899110
 30
0.0
  0
SPLINE
  5
19a
100
AcDbEntity
  8
Layer_1
 62
3
100
AcDbSpline
 70
8
 71
3
 72
8
 73
4
 74
0
 40
0
 40
0
 40
0
 40
0
 40
1
 40
1
 40
1
 40
1
 10
74.056848
 20
36.899110
 30
0.0
 10
74.451070
 20
36.412930
 30
0.0
 10
74.819936
 20
35.899490
 30
0.0
 10
75.166608
 20
35.350270
 30
0.0
  0
SPLINE
  5
19b
100
AcDbEntity
  8
Layer_1
 62
3
100
AcDbSpline
 70
8
 71
3
 72
8
 73
4
 74
0
 40
0
 40
0
 40
0
 40
0
 40
1
 40
1
 40
1
 40
1
 10
75.166608
 20
35.350270
 30
0.0
 10
75.513280
 20
34.801060
 30
0.0
 10
75.837759
 20
34.216080
 30
0.0
 10
76.143207
 20
33.586850
 30
0.0
  0
SPLINE
  5
19c
100
AcDbEntity
  8
Layer_1
 62
3
100
AcDbSpline
 70
8
 71
3
 72
8
 73
4
 74
0
 40
0
 40
0
 40
0
 40
0
 40
1
 40
1
 40
1
 40
1
 10
76.143207
 20
33.586850
 30
0.0
 10
76.448654
 20
32.957620
 30
0.0
 10
76.735071
 20
32.284140
 30
0.0
 10
77.005619
 20
31.557910
 30
0.0
  0
SPLINE
  5
19d
100
AcDbEntity
  8
Layer_1
 62
3
100
AcDbSpline
 70
8
 71
3
 72
8
 73
4
 74
0
 40
0
 40
0
 40
0
 40
0
 40
1
 40
1
 40
1
 40
1
 10
77.005619
 20
31.557910
 30
0.0
 10
77.276167
 20
30.831680
 30
0.0
 10
77.530847
 20
30.052710
 30
0.0
 10
77.772821
 20
29.212510
 30
0.0
  0
SPLINE
  5
19e
100
AcDbEntity
  8
Layer_1
 62
3
100
AcDbSpline
 70
8
 71
3
 72
8
 73
4
 74
0
 40
0
 40
0
 40
0
 40
0
 40
1
 40
1
 40
1
 40
1
 10
77.772821
 20
29.212510
 30
0.0
 10
78.014794
 20
28.372310
 30
0.0
 10
78.244062
 20
27.470870
 30
0.0
 10
78.463786
 20
26.499720
 30
0.0
  0
SPLINE
  5
19f
100
AcDbEntity
  8
Layer_1
 62
3
100
AcDbSpline
 70
8
 71
3
 72
8
 73
4
 74
0
 40
0
 40
0
 40
0
 40
0
 40
1
 40
1
 40
1
 40
1
 10
78.463786
 20
26.499720
 30
0.0
 10
78.683510
 20
25.528560
 30
0.0
 10
78.893690
 20
24.487690
 30
0.0
 10
79.097490
 20
23.368600
 30
0.0
  0
SPLINE
  5
1a0
100
AcDbEntity
  8
Layer_1
 62
3
100
AcDbSpline
 70
8
 71
3
 72
8
 73
4
 74
0
 40
0
 40
0
 40
0
 40
0
 40
1
 40
1
 40
1
 40
1
 10
79.097490
 20
23.368600
 30
0.0
 10
79.301289
 20
22.249510
 30
0.0
 10
79.498708
 20
21.052220
 30
0.0
 10
79.692908
 20
19.768220
 30
0.0
  0
SPLINE
  5
1a1
100
AcDbEntity
  8
Layer_1
 62
3
100
AcDbSpline
 70
8
 71
3
 72
8
 73
4
 74
0
 40
0
 40
0
 40
0
 40
0
 40
1
 40
1
 40
1
 40
1
 10
79.692908
 20
19.768220
 30
0.0
 10
79.845074
 20
18.762140
 30
0.0
 10
79.970302
 20
17.830550
 30
0.0
 10
80.068041
 20
16.969890
 30
0.0
  0
SPLINE
  5
1a2
100
AcDbEntity
  8
Layer_1
 62
3
100
AcDbSpline
 70
8
 71
3
 72
8
 73
4
 74
0
 40
0
 40
0
 40
0
 40
0
 40
1
 40
1
 40
1
 40
1
 10
80.068041
 20
16.969890
 30
0.0
 10
80.165781
 20
16.109230
 30
0.0
 10
80.236032
 20
15.319500
 30
0.0
 10
80.278247
 20
14.597150
 30
0.0
  0
SPLINE
  5
1a3
100
AcDbEntity
  8
Layer_1
 62
3
100
AcDbSpline
 70
8
 71
3
 72
8
 73
4
 74
0
 40
0
 40
0
 40
0
 40
0
 40
1
 40
1
 40
1
 40
1
 10
80.278247
 20
14.597150
 30
0.0
 10
80.320457
 20
13.874800
 30
0.0
 10
80.334637
 20
13.219830
 30
0.0
 10
80.320227
 20
12.628680
 30
0.0
  0
SPLINE
  5
1a4
100
AcDbEntity
  8
Layer_1
 62
3
100
AcDbSpline
 70
8
 71
3
 72
8
 73
4
 74
0
 40
0
 40
0
 40
0
 40
0
 40
1
 40
1
 40
1
 40
1
 10
80.320227
 20
12.628680
 30
0.0
 10
80.305817
 20
12.037520
 30
0.0
 10
80.262827
 20
11.510190
 30
0.0
 10
80.190692
 20
11.043120
 30
0.0
  0
SPLINE
  5
1a5
100
AcDbEntity
  8
Layer_1
 62
3
100
AcDbSpline
 70
8
 71
3
 72
8
 73
4
 74
0
 40
0
 40
0
 40
0
 40
0
 40
1
 40
1
 40
1
 40
1
 10
80.190692
 20
11.043120
 30
0.0
 10
80.118562
 20
10.576060
 30
0.0
 10
80.017294
 20
10.169250
 30
0.0
 10
79.886343
 20
9.819160
 30
0.0
  0
SPLINE
  5
1a6
100
AcDbEntity
  8
Layer_1
 62
3
100
AcDbSpline
 70
8
 71
3
 72
8
 73
4
 74
0
 40
0
 40
0
 40
0
 40
0
 40
1
 40
1
 40
1
 40
1
 10
79.886343
 20
9.819160
 30
0.0
 10
79.755392
 20
9.469070
 30
0.0
 10
79.594757
 20
9.175680
 30
0.0
 10
79.403887
 20
8.935450
 30
0.0
  0
SPLINE
  5
1a7
100
AcDbEntity
  8
Layer_1
 62
3
100
AcDbSpline
 70
8
 71
3
 72
8
 73
4
 74
0
 40
0
 40
0
 40
0
 40
0
 40
1
 40
1
 40
1
 40
1
 10
79.403887
 20
8.935450
 30
0.0
 10
79.213017
 20
8.695210
 30
0.0
 10
78.991914
 20
8.508130
 30
0.0
 10
78.740028
 20
8.370650
 30
0.0
  0
SPLINE
  5
1a8
100
AcDbEntity
  8
Layer_1
 62
3
100
AcDbSpline
 70
8
 71
3
 72
8
 73
4
 74
0
 40
0
 40
0
 40
0
 40
0
 40
1
 40
1
 40
1
 40
1
 10
78.740028
 20
8.370650
 30
0.0
 10
78.488141
 20
8.233170
 30
0.0
 10
78.205472
 20
8.145280
 30
0.0
 10
77.891470
 20
8.103430
 30
0.0
  0
SPLINE
  5
1a9
100
AcDbEntity
  8
Layer_1
 62
3
100
AcDbSpline
 70
8
 71
3
 72
8
 73
4
 74
0
 40
0
 40
0
 40
0
 40
0
 40
1
 40
1
 40
1
 40
1
 10
77.891470
 20
8.103430
 30
0.0
 10
77.820440
 20
8.094430
 30
0.0
 10
77.677970
 20
8.121830
 30
0.0
 10
77.471860
 20
8.183530
 30
0.0
  0
SPLINE
  5
1aa
100
AcDbEntity
  8
Layer_1
 62
3
100
AcDbSpline
 70
8
 71
3
 72
8
 73
4
 74
0
 40
0
 40
0
 40
0
 40
0
 40
1
 40
1
 40
1
 40
1
 10
77.471860
 20
8.183530
 30
0.0
 10
77.265750
 20
8.245230
 30
0.0
 10
76.996004
 20
8.340670
 30
0.0
 10
76.670429
 20
8.466440
 30
0.0
  0
SPLINE
  5
1ab
100
AcDbEntity
  8
Layer_1
 62
3
100
AcDbSpline
 70
8
 71
3
 72
8
 73
4
 74
0
 40
0
 40
0
 40
0
 40
0
 40
1
 40
1
 40
1
 40
1
 10
76.670429
 20
8.466440
 30
0.0
 10
76.344855
 20
8.592210
 30
0.0
 10
75.963454
 20
8.748270
 30
0.0
 10
75.534035
 20
8.931110
 30
0.0
  0
SPLINE
  5
1ac
100
AcDbEntity
  8
Layer_1
 62
3
100
AcDbSpline
 70
8
 71
3
 72
8
 73
4
 74
0
 40
0
 40
0
 40
0
 40
0
 40
1
 40
1
 40
1
 40
1
 10
75.534035
 20
8.931110
 30
0.0
 10
75.104615
 20
9.113950
 30
0.0
 10
74.627178
 20
9.323580
 30
0.0
 10
74.109532
 20
9.556470
 30
0.0
  0
SPLINE
  5
1ad
100
AcDbEntity
  8
Layer_1
 62
3
100
AcDbSpline
 70
8
 71
3
 72
8
 73
4
 74
0
 40
0
 40
0
 40
0
 40
0
 40
1
 40
1
 40
1
 40
1
 10
74.109532
 20
9.556470
 30
0.0
 10
73.591887
 20
9.789360
 30
0.0
 10
73.034033
 20
10.045520
 30
0.0
 10
72.443779
 20
10.321440
 30
0.0
  0
SPLINE
  5
1ae
100
AcDbEntity
  8
Layer_1
 62
3
100
AcDbSpline
 70
8
 71
3
 72
8
 73
4
 74
0
 40
0
 40
0
 40
0
 40
0
 40
1
 40
1
 40
1
 40
1
 10
72.443779
 20
10.321440
 30
0.0
 10
71.853526
 20
10.597350
 30
0.0
 10
71.230874
 20
10.893020
 30
0.0
 10
70.583633
 20
11.204930
 30
0.0
  0
SPLINE
  5
1af
100
AcDbEntity
  8
Layer_1
 62
3
100
AcDbSpline
 70
8
 71
3
 72
8
 73
4
 74
0
 40
0
 40
0
 40
0
 40
0
 40
1
 40
1
 40
1
 40
1
 10
70.583633
 20
11.204930
 30
0.0
 10
69.936391
 20
11.516840
 30
0.0
 10
69.264560
 20
11.844990
 30
0.0
 10
68.575949
 20
12.185870
 30
0.0
  0
SPLINE
  5
1b0
100
AcDbEntity
  8
Layer_1
 62
3
100
AcDbSpline
 70
8
 71
3
 72
8
 73
4
 74
0
 40
0
 40
0
 40
0
 40
0
 40
1
 40
1
 40
1
 40
1
 10
68.575949
 20
12.185870
 30
0.0
 10
67.887338
 20
12.526750
 30
0.0
 10
67.181947
 20
12.880350
 30
0.0
 10
66.467585
 20
13.243170
 30
0.0
  0
LWPOLYLINE
  5
1b1
100
AcDbEntity
  8
Layer_1
 62
3
100
AcDbPolyline
 90
17
 70
0
 10
73.713808
 20
41.633490
 30
0.0
 10
73.238274
 20
41.569090
 30
0.0
 10
72.762741
 20
41.504690
 30
0.0
 10
72.287207
 20
41.440290
 30
0.0
 10
71.811674
 20
41.375890
 30
0.0
 10
71.336140
 20
41.311490
 30
0.0
 10
70.860606
 20
41.247090
 30
0.0
 10
70.385073
 20
41.182690
 30
0.0
 10
69.909539
 20
41.118290
 30
0.0
 10
70.270216
 20
40.764040
 30
0.0
 10
70.630893
 20
40.409790
 30
0.0
 10
70.991569
 20
40.055540
 30
0.0
 10
71.352246
 20
39.701290
 30
0.0
 10
71.712923
 20
39.347040
 30
0.0
 10
72.073600
 20
38.992790
 30
0.0
 10
72.434276
 20
38.638540
 30
0.0
 10
72.794953
 20
38.284290
 30
0.0
  0
LWPOLYLINE
  5
1b2
100
AcDbEntity
  8
Layer_1
 62
3
100
AcDbPolyline
 90
8
 70
1
 10
66.467585
 20
13.243170
 30
0.0
 10
66.467570
 20
13.243270
 30
0.0
 10
66.467556
 20
13.243360
 30
0.0
 10
66.467541
 20
13.243460
 30
0.0
 10
66.467526
 20
13.243560
 30
0.0
 10
66.467511
 20
13.243660
 30
0.0
 10
66.467497
 20
13.243750
 30
0.0
 10
66.467482
 20
13.243850
 30
0.0
  0
ENDSEC
  0
SECTION
  2
OBJECTS
  0
DICTIONARY
  5
C
330
0
100
AcDbDictionary
  3
ACAD_GROUP
350
D
  3
ACAD_MLINESTYLE
350
17
  0
DICTIONARY
  5
D
330
C
100
AcDbDictionary
  0
DICTIONARY
  5
1A
330
C
100
AcDbDictionary
  0
DICTIONARY
  5
17
330
C
100
AcDbDictionary
  3
STANDARD
350
18
  0
DICTIONARY
  5
19
330
C
100
AcDbDictionary
  0
ENDSEC
  0
EOF
