999
dxfrw 0.6.3
  0
SECTION
  2
HEADER
  9
$ACADVER
  1
AC1009
  9
$DWGCODEPAGE
  3
ANSI_1252
  9
$INSBASE
 10
0
 20
0
 30
0
  9
$EXTMIN
 10
2.404817
 20
8.103429999999999
 30
0
  9
$EXTMAX
 10
98.192854
 20
95.25506
 30
0
  9
$LIMMIN
 10
0
 20
0
  9
$LIMMAX
 10
420
 20
297
  9
$ORTHOMODE
 70
    0
  9
$REGENMODE
 70
    1
  9
$FILLMODE
 70
    1
  9
$QTEXTMODE
 70
    0
  9
$MIRRTEXT
 70
    0
  9
$DRAGMODE
 70
    2
  9
$LTSCALE
 40
1
  9
$OSMODE
 70
    0
  9
$ATTMODE
 70
    0
  9
$TEXTSIZE
 40
2.5
  9
$TRACEWID
 40
15.68
  9
$TEXTSTYLE
  7
STANDARD
  9
$CLAYER
  8
0
  9
$CELTYPE
  6
BYLAYER
  9
$CECOLOR
 62
  256
  9
$DIMSCALE
 40
2.5
  9
$DIMASZ
 40
2.5
  9
$DIMEXO
 40
0.625
  9
$DIMDLI
 40
3.75
  9
$DIMRND
 40
0
  9
$DIMDLE
 40
0
  9
$DIMEXE
 40
1.25
  9
$DIMTP
 40
0
  9
$DIMTM
 40
0
  9
$DIMTXT
 40
2.5
  9
$DIMCEN
 40
2.5
  9
$DIMTSZ
 40
0
  9
$DIMTOL
 70
    0
  9
$DIMLIM
 70
    0
  9
$DIMTIH
 70
    0
  9
$DIMTOH
 70
    0
  9
$DIMSE1
 70
    0
  9
$DIMSE2
 70
    0
  9
$DIMTAD
 70
    1
  9
$DIMZIN
 70
    8
  9
$DIMBLK
  1

  9
$DIMASO
 70
    1
  9
$DIMSHO
 70
    1
  9
$DIMPOST
  1

  9
$DIMAPOST
  1

  9
$DIMALT
 70
    0
  9
$DIMALTD
 70
    3
  9
$DIMALTF
 40
0.03937
  9
$DIMLFAC
 40
1
  9
$DIMTOFL
 70
    1
  9
$DIMTVP
 40
0
  9
$DIMTIX
 70
    0
  9
$DIMSOXD
 70
    0
  9
$DIMSAH
 70
    0
  9
$DIMBLK1
  1

  9
$DIMBLK2
  1

  9
$DIMSTYLE
  2
STANDARD
  9
$DIMCLRD
 70
    0
  9
$DIMCLRE
 70
    0
  9
$DIMCLRT
 70
    0
  9
$DIMTFAC
 40
1
  9
$DIMGAP
 40
0.625
  9
$LUNITS
 70
    2
  9
$LUPREC
 70
    4
  9
$SKETCHINC
 40
1
  9
$FILLETRAD
 40
0
  9
$AUNITS
 70
    0
  9
$AUPREC
 70
    2
  9
$MENU
  1
.
  9
$ELEVATION
 40
0
  9
$PELEVATION
 40
0
  9
$THICKNESS
 40
0
  9
$LIMCHECK
 70
    0
  9
$BLIPMODE
 70
    0
  9
$CHAMFERA
 40
0
  9
$CHAMFERB
 40
0
  9
$SKPOLY
 70
    0
  9
$USRTIMER
 70
    1
  9
$ANGBASE
 50
0
  9
$ANGDIR
 70
    0
  9
$PDMODE
 70
   34
  9
$PDSIZE
 40
0
  9
$PLINEWID
 40
0
  9
$COORDS
 70
    2
  9
$SPLFRAME
 70
    0
  9
$SPLINETYPE
 70
    2
  9
$SPLINESEGS
 70
    8
  9
$ATTDIA
 70
    1
  9
$ATTREQ
 70
    1
  9
$HANDLING
 70
    1
  9
$HANDSEED
  5
20000
  9
$SURFTAB1
 70
    6
  9
$SURFTAB2
 70
    6
  9
$SURFTYPE
 70
    6
  9
$SURFU
 70
    6
  9
$SURFV
 70
    6
  9
$UCSNAME
  2

  9
$UCSORG
 10
0
 20
0
 30
0
  9
$UCSXDIR
 10
1
 20
0
 30
0
  9
$UCSYDIR
 10
0
 20
1
 30
0
  9
$PUCSNAME
  2

  9
$PUCSORG
 10
0
 20
0
 30
0
  9
$PUCSXDIR
 10
1
 20
0
 30
0
  9
$PUCSYDIR
 10
0
 20
1
 30
0
  9
$USERI1
 70
    0
  9
$USERI2
 70
    0
  9
$USERI3
 70
    0
  9
$USERI4
 70
    0
  9
$USERI5
 70
    0
  9
$USERR1
 40
0
  9
$USERR2
 40
0
  9
$USERR3
 40
0
  9
$USERR4
 40
0
  9
$USERR5
 40
0
  9
$WORLDVIEW
 70
    1
  9
$SHADEDGE
 70
    3
  9
$SHADEDIF
 70
   70
  9
$TILEMODE
 70
    1
  9
$MAXACTVP
 70
   64
  9
$PLIMCHECK
 70
    0
  9
$PEXTMIN
 10
0
 20
0
 30
0
  9
$PEXTMAX
 10
0
 20
0
 30
0
  9
$GRIDMODE
 70
    0
  9
$SNAPSTYLE
 70
    0
  9
$PLIMMIN
 10
0
 20
0
  9
$PLIMMAX
 10
210
 20
297
  9
$UNITMODE
 70
    0
  9
$VISRETAIN
 70
    1
  9
$PLINEGEN
 70
    0
  9
$PSLTSCALE
 70
    1
  0
ENDSEC
  0
SECTION
  2
TABLES
  0
TABLE
  2
VPORT
 70
    1
  0
VPORT
  2
*ACTIVE
 70
    0
 10
0
 20
0
 11
1
 21
1
 12
108.0316844938149
 22
94.71270969320754
 13
0
 23
0
 14
10
 24
10
 15
10
 25
10
 16
0
 26
0
 36
1
 17
0
 27
0
 37
0
 40
201.8564625336486
 41
1.338709677419355
 42
50
 43
0
 44
0
 50
0
 51
0
 71
    0
 72
  100
 73
    1
 74
    3
 75
    0
 76
    0
 77
    0
 78
    0
  0
ENDTAB
  0
TABLE
  2
LTYPE
 70
    4
  0
LTYPE
  2
BYBLOCK
 70
    0
  3

 72
   65
 73
    0
 40
0
  0
LTYPE
  2
BYLAYER
 70
    0
  3

 72
   65
 73
    0
 40
0
  0
LTYPE
  2
CONTINUOUS
 70
    0
  3
Solid line
 72
   65
 73
    0
 40
0
  0
LTYPE
  2
DOT
 70
    0
  3
Dot . . . . . . . . . . . . . . . . . . . . . .
 72
   65
 73
    2
 40
6.35
 49
0
 49
-6.35
  0
LTYPE
  2
DOTTINY
 70
    0
  3
Dot (.15x) .....................................
 72
   65
 73
    2
 40
0.9525
 49
0
 49
-0.9525
  0
LTYPE
  2
DOT2
 70
    0
  3
Dot (.5x) .....................................
 72
   65
 73
    2
 40
3.175
 49
0
 49
-3.175
  0
LTYPE
  2
DOTX2
 70
    0
  3
Dot (2x) .  .  .  .  .  .  .  .  .  .  .  .  .
 72
   65
 73
    2
 40
12.7
 49
0
 49
-12.7
  0
LTYPE
  2
DASHED
 70
    0
  3
Dashed _ _ _ _ _ _ _ _ _ _ _ _ _ _ _ _ _
 72
   65
 73
    2
 40
19.05
 49
12.7
 49
-6.35
  0
LTYPE
  2
DASHEDTINY
 70
    0
  3
Dashed (.15x) _ _ _ _ _ _ _ _ _ _ _ _ _ _ _ _ _
 72
   65
 73
    2
 40
2.8575
 49
1.905
 49
-0.9525
  0
LTYPE
  2
DASHED2
 70
    0
  3
Dashed (.5x) _ _ _ _ _ _ _ _ _ _ _ _ _ _ _ _ _
 72
   65
 73
    2
 40
9.524999999999999
 49
6.35
 49
-3.175
  0
LTYPE
  2
DASHEDX2
 70
    0
  3
Dashed (2x) ____  ____  ____  ____  ____  ___
 72
   65
 73
    2
 40
38.09999999999999
 49
25.4
 49
-12.7
  0
LTYPE
  2
DASHDOT
 70
    0
  3
Dash dot __ . __ . __ . __ . __ . __ . __ . __
 72
   65
 73
    4
 40
25.4
 49
12.7
 49
-6.35
 49
0
 49
-6.35
  0
LTYPE
  2
DASHDOTTINY
 70
    0
  3
Dash dot (.15x) _._._._._._._._._._._._._._._.
 72
   65
 73
    4
 40
3.81
 49
1.905
 49
-0.9525
 49
0
 49
-0.9525
  0
LTYPE
  2
DASHDOT2
 70
    0
  3
Dash dot (.5x) _._._._._._._._._._._._._._._.
 72
   65
 73
    4
 40
12.7
 49
6.35
 49
-3.175
 49
0
 49
-3.175
  0
LTYPE
  2
DASHDOTX2
 70
    0
  3
Dash dot (2x) ____  .  ____  .  ____  .  ___
 72
   65
 73
    4
 40
50.8
 49
25.4
 49
-12.7
 49
0
 49
-12.7
  0
LTYPE
  2
DIVIDE
 70
    0
  3
Divide ____ . . ____ . . ____ . . ____ . . ____
 72
   65
 73
    6
 40
31.75
 49
12.7
 49
-6.35
 49
0
 49
-6.35
 49
0
 49
-6.35
  0
LTYPE
  2
DIVIDETINY
 70
    0
  3
Divide (.15x) __..__..__..__..__..__..__..__.._
 72
   65
 73
    6
 40
4.7625
 49
1.905
 49
-0.9525
 49
0
 49
-0.9525
 49
0
 49
-0.9525
  0
LTYPE
  2
DIVIDE2
 70
    0
  3
Divide (.5x) __..__..__..__..__..__..__..__.._
 72
   65
 73
    6
 40
15.875
 49
6.35
 49
-3.175
 49
0
 49
-3.175
 49
0
 49
-3.175
  0
LTYPE
  2
DIVIDEX2
 70
    0
  3
Divide (2x) ________  .  .  ________  .  .  _
 72
   65
 73
    6
 40
63.5
 49
25.4
 49
-12.7
 49
0
 49
-12.7
 49
0
 49
-12.7
  0
LTYPE
  2
BORDER
 70
    0
  3
Border __ __ . __ __ . __ __ . __ __ . __ __ .
 72
   65
 73
    6
 40
44.45
 49
12.7
 49
-6.35
 49
12.7
 49
-6.35
 49
0
 49
-6.35
  0
LTYPE
  2
BORDERTINY
 70
    0
  3
Border (.15x) __.__.__.__.__.__.__.__.__.__.__.
 72
   65
 73
    6
 40
6.6675
 49
1.905
 49
-0.9525
 49
1.905
 49
-0.9525
 49
0
 49
-0.9525
  0
LTYPE
  2
BORDER2
 70
    0
  3
Border (.5x) __.__.__.__.__.__.__.__.__.__.__.
 72
   65
 73
    6
 40
22.225
 49
6.35
 49
-3.175
 49
6.35
 49
-3.175
 49
0
 49
-3.175
  0
LTYPE
  2
BORDERX2
 70
    0
  3
Border (2x) ____  ____  .  ____  ____  .  ___
 72
   65
 73
    6
 40
88.89999999999999
 49
25.4
 49
-12.7
 49
25.4
 49
-12.7
 49
0
 49
-12.7
  0
LTYPE
  2
CENTER
 70
    0
  3
Center ____ _ ____ _ ____ _ ____ _ ____ _ ____
 72
   65
 73
    4
 40
50.8
 49
31.75
 49
-6.35
 49
6.35
 49
-6.35
  0
LTYPE
  2
CENTERTINY
 70
    0
  3
Center (.15x) ___ _ ___ _ ___ _ ___ _ ___ _ ___
 72
   65
 73
    4
 40
7.619999999999999
 49
4.7625
 49
-0.9525
 49
0.9525
 49
-0.9525
  0
LTYPE
  2
CENTER2
 70
    0
  3
Center (.5x) ___ _ ___ _ ___ _ ___ _ ___ _ ___
 72
   65
 73
    4
 40
28.575
 49
19.05
 49
-3.175
 49
3.175
 49
-3.175
  0
LTYPE
  2
CENTERX2
 70
    0
  3
Center (2x) ________  __  ________  __  _____
 72
   65
 73
    4
 40
101.6
 49
63.5
 49
-12.7
 49
12.7
 49
-12.7
  0
ENDTAB
  0
TABLE
  2
LAYER
 70
    1
  0
LAYER
  2
0
 70
    0
 62
    7
  6
CONTINUOUS
  0
LAYER
  2
LAYER_1
 70
    0
 62
    7
  6
CONTINUOUS
  0
ENDTAB
  0
TABLE
  2
STYLE
 70
    3
  0
STYLE
  2
STANDARD
 70
    0
 40
0
 41
1
 50
0
 71
    0
 42
1
  3
TXT
  4

  0
ENDTAB
  0
TABLE
  2
VIEW
 70
    0
  0
ENDTAB
  0
TABLE
  2
UCS
 70
    0
  0
ENDTAB
  0
TABLE
  2
APPID
 70
    1
  0
APPID
  2
ACAD
 70
    0
  0
APPID
  2
LIBRECAD
 70
    0
  0
ENDTAB
  0
TABLE
  2
DIMSTYLE
 70
    1
  0
DIMSTYLE
  2
STANDARD
 70
    0
  3

  4

  5

  6

  7

 40
1
 41
2.5
 42
0.625
 43
0.38
 44
1.25
 45
0
 46
0
 47
0
 48
0
 49
1
140
2.5
141
0.09
142
2.5
143
25.4
144
1
145
0
146
1
147
0.625
 71
    0
 72
    0
 73
    0
 74
    1
 75
    0
 76
    0
 77
    0
 78
    1
170
    0
171
    2
172
    0
173
    0
174
    0
175
    0
176
    0
177
    0
178
    0
  0
ENDTAB
  0
ENDSEC
  0
SECTION
  2
BLOCKS
  0
BLOCK
  8
0
  2
$MODEL_SPACE
 70
    0
 10
0
 20
0
 30
0
  3
$MODEL_SPACE
  1

  0
ENDBLK
  8
0
  0
BLOCK
  8
0
  2
$PAPER_SPACE
 70
    0
 10
0
 20
0
 30
0
  3
$PAPER_SPACE
  1

  0
ENDBLK
  8
0
  0
ENDSEC
  0
SECTION
  2
ENTITIES
  0
LINE
  5
31
  8
LAYER_1
  6
BYLAYER
 62
    3
 10
66.467535
 20
13.24325
 11
62.987982
 21
15.05453
  0
LINE
  5
32
  8
LAYER_1
  6
BYLAYER
 62
    3
 10
62.987982
 20
15.05453
 11
60.121884
 21
16.6601
  0
LINE
  5
33
  8
LAYER_1
  6
BYLAYER
 62
    3
 10
60.121884
 20
16.6601
 11
57.783352
 21
18.13033
  0
LINE
  5
34
  8
LAYER_1
  6
BYLAYER
 62
    3
 10
57.783352
 20
18.13033
 11
55.886501
 21
19.53554
  0
LINE
  5
35
  8
LAYER_1
  6
BYLAYER
 62
    3
 10
55.886501
 20
19.53554
 11
54.345443
 21
20.94609
  0
LINE
  5
36
  8
LAYER_1
  6
BYLAYER
 62
    3
 10
54.345443
 20
20.94609
 11
53.074292
 21
22.43232
  0
LINE
  5
37
  8
LAYER_1
  6
BYLAYER
 62
    3
 10
53.074292
 20
22.43232
 11
51.987161
 21
24.06458
  0
LINE
  5
38
  8
LAYER_1
  6
BYLAYER
 62
    3
 10
51.987161
 20
24.06458
 11
50.998162
 21
25.91321
  0
LINE
  5
39
  8
LAYER_1
  6
BYLAYER
 62
    3
 10
50.998162
 20
25.91321
 11
50.671227
 21
26.47879
  0
LINE
  5
3A
  8
LAYER_1
  6
BYLAYER
 62
    3
 10
50.671227
 20
26.47879
 11
50.340102
 21
26.84214
  0
LINE
  5
3B
  8
LAYER_1
  6
BYLAYER
 62
    3
 10
50.340102
 20
26.84214
 11
50.001709
 21
27.00197
  0
LINE
  5
3C
  8
LAYER_1
  6
BYLAYER
 62
    3
 10
50.001709
 20
27.00197
 11
49.652968
 21
26.95697
  0
LINE
  5
3D
  8
LAYER_1
  6
BYLAYER
 62
    3
 10
49.652968
 20
26.95697
 11
49.290801
 21
26.70593
  0
LINE
  5
3E
  8
LAYER_1
  6
BYLAYER
 62
    3
 10
49.290801
 20
26.70593
 11
48.912129
 21
26.24752
  0
LINE
  5
3F
  8
LAYER_1
  6
BYLAYER
 62
    3
 10
48.912129
 20
26.24752
 11
48.513874
 21
25.58047
  0
LINE
  5
40
  8
LAYER_1
  6
BYLAYER
 62
    3
 10
48.513874
 20
25.58047
 11
48.092955
 21
24.70349
  0
LINE
  5
41
  8
LAYER_1
  6
BYLAYER
 62
    3
 10
48.092955
 20
24.70349
 11
47.355682
 21
23.34885
  0
LINE
  5
42
  8
LAYER_1
  6
BYLAYER
 62
    3
 10
47.355682
 20
23.34885
 11
46.336801
 21
22.03424
  0
LINE
  5
43
  8
LAYER_1
  6
BYLAYER
 62
    3
 10
46.336801
 20
22.03424
 11
44.993534
 21
20.7295
  0
LINE
  5
44
  8
LAYER_1
  6
BYLAYER
 62
    3
 10
44.993534
 20
20.7295
 11
43.283106
 21
19.40447
  0
LINE
  5
45
  8
LAYER_1
  6
BYLAYER
 62
    3
 10
43.283106
 20
19.40447
 11
41.162741
 21
18.02901
  0
LINE
  5
46
  8
LAYER_1
  6
BYLAYER
 62
    3
 10
41.162741
 20
18.02901
 11
38.589664
 21
16.57296
  0
LINE
  5
47
  8
LAYER_1
  6
BYLAYER
 62
    3
 10
38.589664
 20
16.57296
 11
35.521099
 21
15.00616
  0
LINE
  5
48
  8
LAYER_1
  6
BYLAYER
 62
    3
 10
35.521099
 20
15.00616
 11
31.91427
 21
13.29846
  0
LINE
  5
49
  8
LAYER_1
  6
BYLAYER
 62
    3
 10
31.91427
 20
13.29846
 11
27.337969
 21
11.24723
  0
LINE
  5
4A
  8
LAYER_1
  6
BYLAYER
 62
    3
 10
27.337969
 20
11.24723
 11
23.893174
 21
9.91559
  0
LINE
  5
4B
  8
LAYER_1
  6
BYLAYER
 62
    3
 10
23.893174
 20
9.91559
 11
21.463177
 21
9.392049999999999
  0
LINE
  5
4C
  8
LAYER_1
  6
BYLAYER
 62
    3
 10
21.463177
 20
9.392049999999999
 11
19.931268
 21
9.765169999999999
  0
LINE
  5
4D
  8
LAYER_1
  6
BYLAYER
 62
    3
 10
19.931268
 20
9.765169999999999
 11
19.180738
 21
11.12348
  0
LINE
  5
4E
  8
LAYER_1
  6
BYLAYER
 62
    3
 10
19.180738
 20
11.12348
 11
19.094878
 21
13.55551
  0
LINE
  5
4F
  8
LAYER_1
  6
BYLAYER
 62
    3
 10
19.094878
 20
13.55551
 11
19.556979
 21
17.1498
  0
LINE
  5
50
  8
LAYER_1
  6
BYLAYER
 62
    3
 10
19.556979
 20
17.1498
 11
20.450333
 21
21.99488
  0
LINE
  5
51
  8
LAYER_1
  6
BYLAYER
 62
    3
 10
20.450333
 20
21.99488
 11
21.20228
 21
25.54338
  0
LINE
  5
52
  8
LAYER_1
  6
BYLAYER
 62
    3
 10
21.20228
 20
25.54338
 11
21.999356
 21
28.6837
  0
LINE
  5
53
  8
LAYER_1
  6
BYLAYER
 62
    3
 10
21.999356
 20
28.6837
 11
22.845528
 21
31.42506
  0
LINE
  5
54
  8
LAYER_1
  6
BYLAYER
 62
    3
 10
22.845528
 20
31.42506
 11
23.744759
 21
33.77672
  0
LINE
  5
55
  8
LAYER_1
  6
BYLAYER
 62
    3
 10
23.744759
 20
33.77672
 11
24.701016
 21
35.74789
  0
LINE
  5
56
  8
LAYER_1
  6
BYLAYER
 62
    3
 10
24.701016
 20
35.74789
 11
25.718264
 21
37.34784
  0
LINE
  5
57
  8
LAYER_1
  6
BYLAYER
 62
    3
 10
25.718264
 20
37.34784
 11
26.800468
 21
38.58578
  0
LINE
  5
58
  8
LAYER_1
  6
BYLAYER
 62
    3
 10
26.800468
 20
38.58578
 11
27.951593
 21
39.47096
  0
LINE
  5
59
  8
LAYER_1
  6
BYLAYER
 62
    3
 10
27.951593
 20
39.47096
 11
28.715323
 21
39.99082
  0
LINE
  5
5A
  8
LAYER_1
  6
BYLAYER
 62
    3
 10
28.715323
 20
39.99082
 11
29.193371
 21
40.46585
  0
LINE
  5
5B
  8
LAYER_1
  6
BYLAYER
 62
    3
 10
29.193371
 20
40.46585
 11
29.383666
 21
40.89925
  0
LINE
  5
5C
  8
LAYER_1
  6
BYLAYER
 62
    3
 10
29.383666
 20
40.89925
 11
29.284136
 21
41.2942
  0
LINE
  5
5D
  8
LAYER_1
  6
BYLAYER
 62
    3
 10
29.284136
 20
41.2942
 11
28.892711
 21
41.65388
  0
LINE
  5
5E
  8
LAYER_1
  6
BYLAYER
 62
    3
 10
28.892711
 20
41.65388
 11
28.207317
 21
41.98147
  0
LINE
  5
5F
  8
LAYER_1
  6
BYLAYER
 62
    3
 10
28.207317
 20
41.98147
 11
27.225883
 21
42.28017
  0
LINE
  5
60
  8
LAYER_1
  6
BYLAYER
 62
    3
 10
27.225883
 20
42.28017
 11
25.946338
 21
42.55314
  0
LINE
  5
61
  8
LAYER_1
  6
BYLAYER
 62
    3
 10
25.946338
 20
42.55314
 11
25.271823
 21
42.69208
  0
LINE
  5
62
  8
LAYER_1
  6
BYLAYER
 62
    3
 10
25.271823
 20
42.69208
 11
24.542572
 21
42.8703
  0
LINE
  5
63
  8
LAYER_1
  6
BYLAYER
 62
    3
 10
24.542572
 20
42.8703
 11
23.781696
 21
43.08041
  0
LINE
  5
64
  8
LAYER_1
  6
BYLAYER
 62
    3
 10
23.781696
 20
43.08041
 11
23.012305
 21
43.31505
  0
LINE
  5
65
  8
LAYER_1
  6
BYLAYER
 62
    3
 10
23.012305
 20
43.31505
 11
22.257508
 21
43.56684
  0
LINE
  5
66
  8
LAYER_1
  6
BYLAYER
 62
    3
 10
22.257508
 20
43.56684
 11
21.540417
 21
43.82839
  0
LINE
  5
67
  8
LAYER_1
  6
BYLAYER
 62
    3
 10
21.540417
 20
43.82839
 11
20.884141
 21
44.09235
  0
LINE
  5
68
  8
LAYER_1
  6
BYLAYER
 62
    3
 10
20.884141
 20
44.09235
 11
20.31179
 21
44.35132
  0
LINE
  5
69
  8
LAYER_1
  6
BYLAYER
 62
    3
 10
20.31179
 20
44.35132
 11
18.747998
 21
45.40978
  0
LINE
  5
6A
  8
LAYER_1
  6
BYLAYER
 62
    3
 10
18.747998
 20
45.40978
 11
16.365674
 21
47.36636
  0
LINE
  5
6B
  8
LAYER_1
  6
BYLAYER
 62
    3
 10
16.365674
 20
47.36636
 11
13.477845
 21
49.92407
  0
LINE
  5
6C
  8
LAYER_1
  6
BYLAYER
 62
    3
 10
13.477845
 20
49.92407
 11
10.397536
 21
52.7859
  0
LINE
  5
6D
  8
LAYER_1
  6
BYLAYER
 62
    3
 10
10.397536
 20
52.7859
 11
7.437773
 21
55.65486
  0
LINE
  5
6E
  8
LAYER_1
  6
BYLAYER
 62
    3
 10
7.437773
 20
55.65486
 11
4.91158
 21
58.23395
  0
LINE
  5
6F
  8
LAYER_1
  6
BYLAYER
 62
    3
 10
4.91158
 20
58.23395
 11
3.131983
 21
60.22619
  0
LINE
  5
70
  8
LAYER_1
  6
BYLAYER
 62
    3
 10
3.131983
 20
60.22619
 11
2.412007
 21
61.33456
  0
LINE
  5
71
  8
LAYER_1
  6
BYLAYER
 62
    3
 10
2.412007
 20
61.33456
 11
2.404817
 21
61.55317
  0
LINE
  5
72
  8
LAYER_1
  6
BYLAYER
 62
    3
 10
2.404817
 20
61.55317
 11
2.440181
 21
61.80967
  0
LINE
  5
73
  8
LAYER_1
  6
BYLAYER
 62
    3
 10
2.440181
 20
61.80967
 11
2.514315
 21
62.09469
  0
LINE
  5
74
  8
LAYER_1
  6
BYLAYER
 62
    3
 10
2.514315
 20
62.09469
 11
2.623436
 21
62.39886
  0
LINE
  5
75
  8
LAYER_1
  6
BYLAYER
 62
    3
 10
2.623436
 20
62.39886
 11
2.763761
 21
62.71281
  0
LINE
  5
76
  8
LAYER_1
  6
BYLAYER
 62
    3
 10
2.763761
 20
62.71281
 11
2.931508
 21
63.02717
  0
LINE
  5
77
  8
LAYER_1
  6
BYLAYER
 62
    3
 10
2.931508
 20
63.02717
 11
3.122895
 21
63.33256
  0
LINE
  5
78
  8
LAYER_1
  6
BYLAYER
 62
    3
 10
3.122895
 20
63.33256
 11
3.334138
 21
63.61961
  0
LINE
  5
79
  8
LAYER_1
  6
BYLAYER
 62
    3
 10
3.334138
 20
63.61961
 11
3.726925
 21
63.99803
  0
LINE
  5
7A
  8
LAYER_1
  6
BYLAYER
 62
    3
 10
3.726925
 20
63.99803
 11
4.297884
 21
64.33798
  0
LINE
  5
7B
  8
LAYER_1
  6
BYLAYER
 62
    3
 10
4.297884
 20
64.33798
 11
5.101184
 21
64.65246
  0
LINE
  5
7C
  8
LAYER_1
  6
BYLAYER
 62
    3
 10
5.101184
 20
64.65246
 11
6.190996
 21
64.95447
  0
LINE
  5
7D
  8
LAYER_1
  6
BYLAYER
 62
    3
 10
6.190996
 20
64.95447
 11
7.621492
 21
65.25700000000001
  0
LINE
  5
7E
  8
LAYER_1
  6
BYLAYER
 62
    3
 10
7.621492
 20
65.25700000000001
 11
9.446840999999999
 21
65.57303
  0
LINE
  5
7F
  8
LAYER_1
  6
BYLAYER
 62
    3
 10
9.446840999999999
 20
65.57303
 11
11.721214
 21
65.91557
  0
LINE
  5
80
  8
LAYER_1
  6
BYLAYER
 62
    3
 10
11.721214
 20
65.91557
 11
14.498783
 21
66.29761000000001
  0
LINE
  5
81
  8
LAYER_1
  6
BYLAYER
 62
    3
 10
14.498783
 20
66.29761000000001
 11
18.300913
 21
66.75783
  0
LINE
  5
82
  8
LAYER_1
  6
BYLAYER
 62
    3
 10
18.300913
 20
66.75783
 11
21.627973
 21
67.05525
  0
LINE
  5
83
  8
LAYER_1
  6
BYLAYER
 62
    3
 10
21.627973
 20
67.05525
 11
24.532519
 21
67.18718
  0
LINE
  5
84
  8
LAYER_1
  6
BYLAYER
 62
    3
 10
24.532519
 20
67.18718
 11
27.067104
 21
67.15098
  0
LINE
  5
85
  8
LAYER_1
  6
BYLAYER
 62
    3
 10
27.067104
 20
67.15098
 11
29.284284
 21
66.94387
  0
LINE
  5
86
  8
LAYER_1
  6
BYLAYER
 62
    3
 10
29.284284
 20
66.94387
 11
31.236616
 21
66.56319000000001
  0
LINE
  5
87
  8
LAYER_1
  6
BYLAYER
 62
    3
 10
31.236616
 20
66.56319000000001
 11
32.976653
 21
66.00626
  0
LINE
  5
88
  8
LAYER_1
  6
BYLAYER
 62
    3
 10
32.976653
 20
66.00626
 11
34.556951
 21
65.27038
  0
LINE
  5
89
  8
LAYER_1
  6
BYLAYER
 62
    3
 10
34.556951
 20
65.27038
 11
35.690125
 21
64.68356
  0
LINE
  5
8A
  8
LAYER_1
  6
BYLAYER
 62
    3
 10
35.690125
 20
64.68356
 11
36.567832
 21
64.31592999999999
  0
LINE
  5
8B
  8
LAYER_1
  6
BYLAYER
 62
    3
 10
36.567832
 20
64.31592999999999
 11
37.213325
 21
64.18503
  0
LINE
  5
8C
  8
LAYER_1
  6
BYLAYER
 62
    3
 10
37.213325
 20
64.18503
 11
37.649859
 21
64.30839
  0
LINE
  5
8D
  8
LAYER_1
  6
BYLAYER
 62
    3
 10
37.649859
 20
64.30839
 11
37.900688
 21
64.70357
  0
LINE
  5
8E
  8
LAYER_1
  6
BYLAYER
 62
    3
 10
37.900688
 20
64.70357
 11
37.989068
 21
65.38809999999999
  0
LINE
  5
8F
  8
LAYER_1
  6
BYLAYER
 62
    3
 10
37.989068
 20
65.38809999999999
 11
37.938248
 21
66.37952
  0
LINE
  5
90
  8
LAYER_1
  6
BYLAYER
 62
    3
 10
37.938248
 20
66.37952
 11
37.771485
 21
67.69538
  0
LINE
  5
91
  8
LAYER_1
  6
BYLAYER
 62
    3
 10
37.771485
 20
67.69538
 11
37.688115
 21
68.46959
  0
LINE
  5
92
  8
LAYER_1
  6
BYLAYER
 62
    3
 10
37.688115
 20
68.46959
 11
37.649955
 21
69.3184
  0
LINE
  5
93
  8
LAYER_1
  6
BYLAYER
 62
    3
 10
37.649955
 20
69.3184
 11
37.654955
 21
70.21417
  0
LINE
  5
94
  8
LAYER_1
  6
BYLAYER
 62
    3
 10
37.654955
 20
70.21417
 11
37.701165
 21
71.12927000000001
  0
LINE
  5
95
  8
LAYER_1
  6
BYLAYER
 62
    3
 10
37.701165
 20
71.12927000000001
 11
37.786535
 21
72.03608
  0
LINE
  5
96
  8
LAYER_1
  6
BYLAYER
 62
    3
 10
37.786535
 20
72.03608
 11
37.909055
 21
72.90697
  0
LINE
  5
97
  8
LAYER_1
  6
BYLAYER
 62
    3
 10
37.909055
 20
72.90697
 11
38.066706
 21
73.71431
  0
LINE
  5
98
  8
LAYER_1
  6
BYLAYER
 62
    3
 10
38.066706
 20
73.71431
 11
38.257471
 21
74.43048
  0
LINE
  5
99
  8
LAYER_1
  6
BYLAYER
 62
    3
 10
38.257471
 20
74.43048
 11
39.103293
 21
76.56796
  0
LINE
  5
9A
  8
LAYER_1
  6
BYLAYER
 62
    3
 10
39.103293
 20
76.56796
 11
40.497574
 21
79.49829
  0
LINE
  5
9B
  8
LAYER_1
  6
BYLAYER
 62
    3
 10
40.497574
 20
79.49829
 11
42.254525
 21
82.89140999999999
  0
LINE
  5
9C
  8
LAYER_1
  6
BYLAYER
 62
    3
 10
42.254525
 20
82.89140999999999
 11
44.188355
 21
86.41732
  0
LINE
  5
9D
  8
LAYER_1
  6
BYLAYER
 62
    3
 10
44.188355
 20
86.41732
 11
46.113274
 21
89.74597
  0
LINE
  5
9E
  8
LAYER_1
  6
BYLAYER
 62
    3
 10
46.113274
 20
89.74597
 11
47.843493
 21
92.54733
  0
LINE
  5
9F
  8
LAYER_1
  6
BYLAYER
 62
    3
 10
47.843493
 20
92.54733
 11
49.193221
 21
94.49137
  0
LINE
  5
A0
  8
LAYER_1
  6
BYLAYER
 62
    3
 10
49.193221
 20
94.49137
 11
49.976668
 21
95.24806
  0
LINE
  5
A1
  8
LAYER_1
  6
BYLAYER
 62
    3
 10
49.976668
 20
95.24806
 11
50.734817
 21
95.25506
  0
LINE
  5
A2
  8
LAYER_1
  6
BYLAYER
 62
    3
 10
50.734817
 20
95.25506
 11
51.453678
 21
95.04456
  0
LINE
  5
A3
  8
LAYER_1
  6
BYLAYER
 62
    3
 10
51.453678
 20
95.04456
 11
52.180585
 21
94.55946
  0
LINE
  5
A4
  8
LAYER_1
  6
BYLAYER
 62
    3
 10
52.180585
 20
94.55946
 11
52.962874
 21
93.74231
  0
LINE
  5
A5
  8
LAYER_1
  6
BYLAYER
 62
    3
 10
52.962874
 20
93.74231
 11
53.847882
 21
92.53567
  0
LINE
  5
A6
  8
LAYER_1
  6
BYLAYER
 62
    3
 10
53.847882
 20
92.53567
 11
54.882946
 21
90.88208
  0
LINE
  5
A7
  8
LAYER_1
  6
BYLAYER
 62
    3
 10
54.882946
 20
90.88208
 11
56.115399
 21
88.72411
  0
LINE
  5
A8
  8
LAYER_1
  6
BYLAYER
 62
    3
 10
56.115399
 20
88.72411
 11
57.59258
 21
86.0043
  0
LINE
  5
A9
  8
LAYER_1
  6
BYLAYER
 62
    3
 10
57.59258
 20
86.0043
 11
59.465627
 21
82.41043000000001
  0
LINE
  5
AA
  8
LAYER_1
  6
BYLAYER
 62
    3
 10
59.465627
 20
82.41043000000001
 11
60.963867
 21
79.31086999999999
  0
LINE
  5
AB
  8
LAYER_1
  6
BYLAYER
 62
    3
 10
60.963867
 20
79.31086999999999
 11
62.110104
 21
76.62988
  0
LINE
  5
AC
  8
LAYER_1
  6
BYLAYER
 62
    3
 10
62.110104
 20
76.62988
 11
62.927141
 21
74.29173
  0
LINE
  5
AD
  8
LAYER_1
  6
BYLAYER
 62
    3
 10
62.927141
 20
74.29173
 11
63.437782
 21
72.22069
  0
LINE
  5
AE
  8
LAYER_1
  6
BYLAYER
 62
    3
 10
63.437782
 20
72.22069
 11
63.66483
 21
70.34104000000001
  0
LINE
  5
AF
  8
LAYER_1
  6
BYLAYER
 62
    3
 10
63.66483
 20
70.34104000000001
 11
63.63109
 21
68.57704
  0
LINE
  5
B0
  8
LAYER_1
  6
BYLAYER
 62
    3
 10
63.63109
 20
68.57704
 11
63.359365
 21
66.85297
  0
LINE
  5
B1
  8
LAYER_1
  6
BYLAYER
 62
    3
 10
63.359365
 20
66.85297
 11
63.265015
 21
66.42711
  0
LINE
  5
B2
  8
LAYER_1
  6
BYLAYER
 62
    3
 10
63.265015
 20
66.42711
 11
63.170665
 21
66.00125
  0
LINE
  5
B3
  8
LAYER_1
  6
BYLAYER
 62
    3
 10
63.170665
 20
66.00125
 11
63.076315
 21
65.57539
  0
LINE
  5
B4
  8
LAYER_1
  6
BYLAYER
 62
    3
 10
63.076315
 20
65.57539
 11
62.981965
 21
65.14952
  0
LINE
  5
B5
  8
LAYER_1
  6
BYLAYER
 62
    3
 10
62.981965
 20
65.14952
 11
62.887615
 21
64.72366
  0
LINE
  5
B6
  8
LAYER_1
  6
BYLAYER
 62
    3
 10
62.887615
 20
64.72366
 11
62.793265
 21
64.2978
  0
LINE
  5
B7
  8
LAYER_1
  6
BYLAYER
 62
    3
 10
62.793265
 20
64.2978
 11
62.698915
 21
63.87194
  0
LINE
  5
B8
  8
LAYER_1
  6
BYLAYER
 62
    3
 10
62.698915
 20
63.87194
 11
62.604565
 21
63.44608
  0
LINE
  5
B9
  8
LAYER_1
  6
BYLAYER
 62
    3
 10
62.604565
 20
63.44608
 11
62.866708
 21
63.54418
  0
LINE
  5
BA
  8
LAYER_1
  6
BYLAYER
 62
    3
 10
62.866708
 20
63.54418
 11
63.128851
 21
63.64228
  0
LINE
  5
BB
  8
LAYER_1
  6
BYLAYER
 62
    3
 10
63.128851
 20
63.64228
 11
63.390993
 21
63.74038
  0
LINE
  5
BC
  8
LAYER_1
  6
BYLAYER
 62
    3
 10
63.390993
 20
63.74038
 11
63.653136
 21
63.83838
  0
LINE
  5
BD
  8
LAYER_1
  6
BYLAYER
 62
    3
 10
63.653136
 20
63.83838
 11
63.915279
 21
63.93648
  0
LINE
  5
BE
  8
LAYER_1
  6
BYLAYER
 62
    3
 10
63.915279
 20
63.93648
 11
64.17742200000001
 21
64.03458000000001
  0
LINE
  5
BF
  8
LAYER_1
  6
BYLAYER
 62
    3
 10
64.17742200000001
 20
64.03458000000001
 11
64.439564
 21
64.13267999999999
  0
LINE
  5
C0
  8
LAYER_1
  6
BYLAYER
 62
    3
 10
64.439564
 20
64.13267999999999
 11
64.701707
 21
64.23078
  0
LINE
  5
C1
  8
LAYER_1
  6
BYLAYER
 62
    3
 10
64.701707
 20
64.23078
 11
67.153244
 21
65.09404000000001
  0
LINE
  5
C2
  8
LAYER_1
  6
BYLAYER
 62
    3
 10
67.153244
 20
65.09404000000001
 11
69.37464900000001
 21
65.73403999999999
  0
LINE
  5
C3
  8
LAYER_1
  6
BYLAYER
 62
    3
 10
69.37464900000001
 20
65.73403999999999
 11
71.503535
 21
66.15761000000001
  0
LINE
  5
C4
  8
LAYER_1
  6
BYLAYER
 62
    3
 10
71.503535
 20
66.15761000000001
 11
73.67751199999999
 21
66.3716
  0
LINE
  5
C5
  8
LAYER_1
  6
BYLAYER
 62
    3
 10
73.67751199999999
 20
66.3716
 11
76.034193
 21
66.3828
  0
LINE
  5
C6
  8
LAYER_1
  6
BYLAYER
 62
    3
 10
76.034193
 20
66.3828
 11
78.711191
 21
66.19815
  0
LINE
  5
C7
  8
LAYER_1
  6
BYLAYER
 62
    3
 10
78.711191
 20
66.19815
 11
81.846115
 21
65.82443000000001
  0
LINE
  5
C8
  8
LAYER_1
  6
BYLAYER
 62
    3
 10
81.846115
 20
65.82443000000001
 11
85.57658000000001
 21
65.2685
  0
LINE
  5
C9
  8
LAYER_1
  6
BYLAYER
 62
    3
 10
85.57658000000001
 20
65.2685
 11
90.718193
 21
64.40002
  0
LINE
  5
CA
  8
LAYER_1
  6
BYLAYER
 62
    3
 10
90.718193
 20
64.40002
 11
94.49447000000001
 21
63.56734
  0
LINE
  5
CB
  8
LAYER_1
  6
BYLAYER
 62
    3
 10
94.49447000000001
 20
63.56734
 11
96.961568
 21
62.65547
  0
LINE
  5
CC
  8
LAYER_1
  6
BYLAYER
 62
    3
 10
96.961568
 20
62.65547
 11
98.17564400000001
 21
61.54941
  0
LINE
  5
CD
  8
LAYER_1
  6
BYLAYER
 62
    3
 10
98.17564400000001
 20
61.54941
 11
98.192854
 21
60.13418
  0
LINE
  5
CE
  8
LAYER_1
  6
BYLAYER
 62
    3
 10
98.192854
 20
60.13418
 11
97.069357
 21
58.29477
  0
LINE
  5
CF
  8
LAYER_1
  6
BYLAYER
 62
    3
 10
97.069357
 20
58.29477
 11
94.86130799999999
 21
55.91621
  0
LINE
  5
D0
  8
LAYER_1
  6
BYLAYER
 62
    3
 10
94.86130799999999
 20
55.91621
 11
91.624865
 21
52.8835
  0
LINE
  5
D1
  8
LAYER_1
  6
BYLAYER
 62
    3
 10
91.624865
 20
52.8835
 11
88.59871200000001
 21
50.1894
  0
LINE
  5
D2
  8
LAYER_1
  6
BYLAYER
 62
    3
 10
88.59871200000001
 20
50.1894
 11
85.90472
 21
47.93062
  0
LINE
  5
D3
  8
LAYER_1
  6
BYLAYER
 62
    3
 10
85.90472
 20
47.93062
 11
83.48927500000001
 21
46.07346
  0
LINE
  5
D4
  8
LAYER_1
  6
BYLAYER
 62
    3
 10
83.48927500000001
 20
46.07346
 11
81.298765
 21
44.58426
  0
LINE
  5
D5
  8
LAYER_1
  6
BYLAYER
 62
    3
 10
81.298765
 20
44.58426
 11
79.27957600000001
 21
43.42934
  0
LINE
  5
D6
  8
LAYER_1
  6
BYLAYER
 62
    3
 10
79.27957600000001
 20
43.42934
 11
77.378095
 21
42.57502
  0
LINE
  5
D7
  8
LAYER_1
  6
BYLAYER
 62
    3
 10
77.378095
 20
42.57502
 11
75.54071
 21
41.98763
  0
LINE
  5
D8
  8
LAYER_1
  6
BYLAYER
 62
    3
 10
75.54071
 20
41.98763
 11
73.713808
 21
41.63349
  0
LINE
  5
D9
  8
LAYER_1
  6
BYLAYER
 62
    3
 10
73.713808
 20
41.63349
 11
73.238274
 21
41.56909
  0
LINE
  5
DA
  8
LAYER_1
  6
BYLAYER
 62
    3
 10
73.238274
 20
41.56909
 11
72.76274100000001
 21
41.50469
  0
LINE
  5
DB
  8
LAYER_1
  6
BYLAYER
 62
    3
 10
72.76274100000001
 20
41.50469
 11
72.287207
 21
41.44029
  0
LINE
  5
DC
  8
LAYER_1
  6
BYLAYER
 62
    3
 10
72.287207
 20
41.44029
 11
71.811674
 21
41.37589
  0
LINE
  5
DD
  8
LAYER_1
  6
BYLAYER
 62
    3
 10
71.811674
 20
41.37589
 11
71.33614
 21
41.31149
  0
LINE
  5
DE
  8
LAYER_1
  6
BYLAYER
 62
    3
 10
71.33614
 20
41.31149
 11
70.860606
 21
41.24709
  0
LINE
  5
DF
  8
LAYER_1
  6
BYLAYER
 62
    3
 10
70.860606
 20
41.24709
 11
70.38507300000001
 21
41.18269
  0
LINE
  5
E0
  8
LAYER_1
  6
BYLAYER
 62
    3
 10
70.38507300000001
 20
41.18269
 11
69.909539
 21
41.11829
  0
LINE
  5
E1
  8
LAYER_1
  6
BYLAYER
 62
    3
 10
69.909539
 20
41.11829
 11
70.270216
 21
40.76404
  0
LINE
  5
E2
  8
LAYER_1
  6
BYLAYER
 62
    3
 10
70.270216
 20
40.76404
 11
70.630893
 21
40.40979
  0
LINE
  5
E3
  8
LAYER_1
  6
BYLAYER
 62
    3
 10
70.630893
 20
40.40979
 11
70.991569
 21
40.05554
  0
LINE
  5
E4
  8
LAYER_1
  6
BYLAYER
 62
    3
 10
70.991569
 20
40.05554
 11
71.35224599999999
 21
39.70129
  0
LINE
  5
E5
  8
LAYER_1
  6
BYLAYER
 62
    3
 10
71.35224599999999
 20
39.70129
 11
71.712923
 21
39.34704
  0
LINE
  5
E6
  8
LAYER_1
  6
BYLAYER
 62
    3
 10
71.712923
 20
39.34704
 11
72.0736
 21
38.99279
  0
LINE
  5
E7
  8
LAYER_1
  6
BYLAYER
 62
    3
 10
72.0736
 20
38.99279
 11
72.434276
 21
38.63854
  0
LINE
  5
E8
  8
LAYER_1
  6
BYLAYER
 62
    3
 10
72.434276
 20
38.63854
 11
72.79495300000001
 21
38.28429
  0
LINE
  5
E9
  8
LAYER_1
  6
BYLAYER
 62
    3
 10
72.79495300000001
 20
38.28429
 11
74.056848
 21
36.89911
  0
LINE
  5
EA
  8
LAYER_1
  6
BYLAYER
 62
    3
 10
74.056848
 20
36.89911
 11
75.166608
 21
35.35027
  0
LINE
  5
EB
  8
LAYER_1
  6
BYLAYER
 62
    3
 10
75.166608
 20
35.35027
 11
76.143207
 21
33.58685
  0
LINE
  5
EC
  8
LAYER_1
  6
BYLAYER
 62
    3
 10
76.143207
 20
33.58685
 11
77.005619
 21
31.55791
  0
LINE
  5
ED
  8
LAYER_1
  6
BYLAYER
 62
    3
 10
77.005619
 20
31.55791
 11
77.77282099999999
 21
29.21251
  0
LINE
  5
EE
  8
LAYER_1
  6
BYLAYER
 62
    3
 10
77.77282099999999
 20
29.21251
 11
78.463786
 21
26.49972
  0
LINE
  5
EF
  8
LAYER_1
  6
BYLAYER
 62
    3
 10
78.463786
 20
26.49972
 11
79.09748999999999
 21
23.3686
  0
LINE
  5
F0
  8
LAYER_1
  6
BYLAYER
 62
    3
 10
79.09748999999999
 20
23.3686
 11
79.692908
 21
19.76822
  0
LINE
  5
F1
  8
LAYER_1
  6
BYLAYER
 62
    3
 10
79.692908
 20
19.76822
 11
80.06804099999999
 21
16.96989
  0
LINE
  5
F2
  8
LAYER_1
  6
BYLAYER
 62
    3
 10
80.06804099999999
 20
16.96989
 11
80.27824699999999
 21
14.59715
  0
LINE
  5
F3
  8
LAYER_1
  6
BYLAYER
 62
    3
 10
80.27824699999999
 20
14.59715
 11
80.320227
 21
12.62868
  0
LINE
  5
F4
  8
LAYER_1
  6
BYLAYER
 62
    3
 10
80.320227
 20
12.62868
 11
80.190692
 21
11.04312
  0
LINE
  5
F5
  8
LAYER_1
  6
BYLAYER
 62
    3
 10
80.190692
 20
11.04312
 11
79.886343
 21
9.81916
  0
LINE
  5
F6
  8
LAYER_1
  6
BYLAYER
 62
    3
 10
79.886343
 20
9.81916
 11
79.403887
 21
8.935449999999999
  0
LINE
  5
F7
  8
LAYER_1
  6
BYLAYER
 62
    3
 10
79.403887
 20
8.935449999999999
 11
78.740028
 21
8.370649999999999
  0
LINE
  5
F8
  8
LAYER_1
  6
BYLAYER
 62
    3
 10
78.740028
 20
8.370649999999999
 11
77.89147
 21
8.103429999999999
  0
LINE
  5
F9
  8
LAYER_1
  6
BYLAYER
 62
    3
 10
77.89147
 20
8.103429999999999
 11
77.47186000000001
 21
8.183529999999999
  0
LINE
  5
FA
  8
LAYER_1
  6
BYLAYER
 62
    3
 10
77.47186000000001
 20
8.183529999999999
 11
76.670429
 21
8.46644
  0
LINE
  5
FB
  8
LAYER_1
  6
BYLAYER
 62
    3
 10
76.670429
 20
8.46644
 11
75.534035
 21
8.93111
  0
LINE
  5
FC
  8
LAYER_1
  6
BYLAYER
 62
    3
 10
75.534035
 20
8.93111
 11
74.109532
 21
9.556469999999999
  0
LINE
  5
FD
  8
LAYER_1
  6
BYLAYER
 62
    3
 10
74.109532
 20
9.556469999999999
 11
72.44377900000001
 21
10.32144
  0
LINE
  5
FE
  8
LAYER_1
  6
BYLAYER
 62
    3
 10
72.44377900000001
 20
10.32144
 11
70.58363300000001
 21
11.20493
  0
LINE
  5
FF
  8
LAYER_1
  6
BYLAYER
 62
    3
 10
70.58363300000001
 20
11.20493
 11
68.57594899999999
 21
12.18587
  0
LINE
  5
100
  8
LAYER_1
  6
BYLAYER
 62
    3
 10
68.57594899999999
 20
12.18587
 11
66.467585
 21
13.24317
  0
LINE
  5
101
  8
LAYER_1
  6
BYLAYER
 62
    3
 10
66.467585
 20
13.24317
 11
66.46756999999999
 21
13.24327
  0
LINE
  5
102
  8
LAYER_1
  6
BYLAYER
 62
    3
 10
66.46756999999999
 20
13.24327
 11
66.467556
 21
13.24336
  0
LINE
  5
103
  8
LAYER_1
  6
BYLAYER
 62
    3
 10
66.467556
 20
13.24336
 11
66.467541
 21
13.24346
  0
LINE
  5
104
  8
LAYER_1
  6
BYLAYER
 62
    3
 10
66.467541
 20
13.24346
 11
66.46752600000001
 21
13.24356
  0
LINE
  5
105
  8
LAYER_1
  6
BYLAYER
 62
    3
 10
66.46752600000001
 20
13.24356
 11
66.467511
 21
13.24366
  0
LINE
  5
106
  8
LAYER_1
  6
BYLAYER
 62
    3
 10
66.467511
 20
13.24366
 11
66.46749699999999
 21
13.24375
  0
LINE
  5
107
  8
LAYER_1
  6
BYLAYER
 62
    3
 10
66.46749699999999
 20
13.24375
 11
66.467482
 21
13.24385
  0
LINE
  5
108
  8
LAYER_1
  6
BYLAYER
 62
    3
 10
66.467482
 20
13.24385
 11
66.467535
 21
13.24325
  0
ENDSEC
  0
EOF
